M48
;DRILL file {Pcbnew (2012-apr-16-27)-stable} date Mon 23 Mar 2015 09:04:25 AM CDT
;FORMAT={-:-/ absolute / inch / decimal}
FMAT,2
INCH,TZ
T1C0.025
T2C0.032
%
G90
G05
M72
T1
X2.770Y2.430
X2.810Y2.360
X2.920Y2.790
X2.930Y3.490
X3.020Y2.900
X3.075Y2.925
X3.075Y3.275
X3.140Y2.360
X3.340Y2.360
X3.540Y2.810
X3.560Y2.590
X3.720Y2.250
X3.720Y3.270
X3.750Y2.495
X3.780Y2.670
X3.830Y3.330
X3.940Y2.010
X3.950Y2.340
X3.950Y2.390
X3.960Y2.100
X4.010Y2.390
X4.110Y2.220
T2
X2.100Y3.100
X2.100Y3.190
X2.200Y3.000
X2.200Y3.100
X2.200Y3.200
X2.300Y3.000
X2.300Y3.100
X2.300Y3.200
X2.400Y2.080
X2.400Y2.180
X2.400Y3.000
X2.400Y3.100
X2.400Y3.200
X2.500Y3.000
X2.500Y3.100
X2.500Y3.200
T0
M30
