<?xml version="1.0" standalone="no"?>
 <!DOCTYPE svg PUBLIC "-//W3C//DTD SVG 1.1//EN" 
 "http://www.w3.org/Graphics/SVG/1.1/DTD/svg11.dtd"> 
<svg xmlns="http://www.w3.org/2000/svg" version="1.1" 
    width="2.61366cm" height="2.50952cm" viewBox="0 0 10290 9880 ">
<title>SVG Picture created as noncontact-electrodes-F_Cu.svg date 2015/08/15 11:43:50 </title>
  <desc>Picture generated by PCBNEW </desc>
<g style="fill:#000000; fill-opacity:1;stroke:#000000; stroke-opacity:1;
stroke-linecap:round; stroke-linejoin:round; "
 transform="translate(0 0) scale(1 1)">
</g>
<g style="fill:#000000; fill-opacity:0.0; 
stroke:#000000; stroke-width:39.3701; stroke-opacity:1; 
stroke-linecap:round; stroke-linejoin:round;">
<path d="M19 9869
L19 19
" />
<path d="M9919 9869
L19 9869
" />
<path d="M9919 19
L9919 9869
" />
<path d="M19 19
L9919 19
" />
</g>
<g style="fill:#000000; fill-opacity:1.0; 
stroke:#000000; stroke-width:39.3701; stroke-opacity:1; 
stroke-linecap:round; stroke-linejoin:round;">
<polyline style="fill-rule:evenodd;"
points="6713,4771
7225,4771
7225,4968
6713,4968
6713,4771
" /> 
<polyline style="fill-rule:evenodd;"
points="4613,4771
5125,4771
5125,4968
4613,4968
4613,4771
" /> 
<polyline style="fill-rule:evenodd;"
points="6713,5271
7225,5271
7225,5468
6713,5468
6713,5271
" /> 
<polyline style="fill-rule:evenodd;"
points="6713,5771
7225,5771
7225,5968
6713,5968
6713,5771
" /> 
<polyline style="fill-rule:evenodd;"
points="6713,6271
7225,6271
7225,6468
6713,6468
6713,6271
" /> 
<polyline style="fill-rule:evenodd;"
points="4613,5271
5125,5271
5125,5468
4613,5468
4613,5271
" /> 
<polyline style="fill-rule:evenodd;"
points="4613,5771
5125,5771
5125,5968
4613,5968
4613,5771
" /> 
<polyline style="fill-rule:evenodd;"
points="4613,6271
5125,6271
5125,6468
4613,6468
4613,6271
" /> 
<polyline style="fill-rule:evenodd;"
points="3850,3500
3339,3500
3339,3189
3850,3189
3850,3500
" /> 
<polyline style="fill-rule:evenodd;"
points="3850,2750
3339,2750
3339,2439
3850,2439
3850,2750
" /> 
<polyline style="fill-rule:evenodd;"
points="6339,3925
6339,3414
6650,3414
6650,3925
6339,3925
" /> 
<polyline style="fill-rule:evenodd;"
points="7089,3925
7089,3414
7400,3414
7400,3925
7089,3925
" /> 
<polyline style="fill-rule:evenodd;"
points="6339,2850
6339,2339
6650,2339
6650,2850
6339,2850
" /> 
<polyline style="fill-rule:evenodd;"
points="7089,2850
7089,2339
7400,2339
7400,2850
7089,2850
" /> 
<polyline style="fill-rule:evenodd;"
points="1914,5400
1914,4839
2475,4839
2475,5400
1914,5400
" /> 
<polyline style="fill-rule:evenodd;"
points="5145,2856
4594,2856
4594,2383
5145,2383
5145,2856
" /> 
<polyline style="fill-rule:evenodd;"
points="5145,3606
4594,3606
4594,3133
5145,3133
5145,3606
" /> 
<polyline style="fill-rule:evenodd;"
points="3870,5356
3319,5356
3319,4883
3870,4883
3870,5356
" /> 
<polyline style="fill-rule:evenodd;"
points="3870,6106
3319,6106
3319,5633
3870,5633
3870,6106
" /> 
<polyline style="fill-rule:evenodd;"
points="8470,5981
7919,5981
7919,5508
8470,5508
8470,5981
" /> 
<polyline style="fill-rule:evenodd;"
points="8470,6731
7919,6731
7919,6258
8470,6258
8470,6731
" /> 
<polyline style="fill-rule:evenodd;"
points="9144,2870
9144,2319
9695,2319
9695,2870
9144,2870
" /> 
<polyline style="fill-rule:evenodd;"
points="1894,2870
1894,2319
2445,2319
2445,2870
1894,2870
" /> 
<polyline style="fill-rule:evenodd;"
points="9144,6470
9144,5919
9695,5919
9695,6470
9144,6470
" /> 
<polyline style="fill-rule:evenodd;"
points="9144,5270
9144,4719
9695,4719
9695,5270
9144,5270
" /> 
<polyline style="fill-rule:evenodd;"
points="9144,4095
9144,3544
9695,3544
9695,4095
9144,4095
" /> 
</g>
<g style="fill:#000000; fill-opacity:1.0; 
stroke:#000000; stroke-width:196.85; stroke-opacity:1; 
stroke-linecap:round; stroke-linejoin:round;">
<path d="M8194 4869
L8194 5744
" />
<path d="M6969 4869
L8194 4869
" />
<path d="M8194 4869
L9294 4869
" />
<path d="M9294 4869
L9419 4994
" />
<path d="M8194 6494
L9119 6494
" />
<path d="M9119 6494
L9419 6194
" />
<path d="M4869 6369
L4869 6744
" />
<path d="M7494 7194
L8194 6494
" />
<path d="M5319 7194
L7494 7194
" />
<path d="M4869 6744
L5319 7194
" />
<path d="M3594 5119
L2194 5119
" />
<path d="M7244 3669
L9269 3669
" />
<path d="M9269 3669
L9419 3819
" />
<path d="M7244 2594
L9419 2594
" />
<path d="M4869 5869
L3594 5869
" />
<path d="M3594 3344
L4844 3344
" />
<path d="M4844 3344
L4869 3369
" />
<path d="M4869 4869
L4869 3369
" />
<path d="M4869 5369
L4869 4869
" />
<path d="M6969 5869
L6969 5369
" />
<path d="M6494 3669
L6219 3944
" />
<path d="M6469 5869
L6969 5869
" />
<path d="M6219 5619
L6469 5869
" />
<path d="M6219 3944
L6219 5619
" />
<path d="M5594 2619
L6469 2619
" />
<path d="M6469 2619
L6494 2594
" />
<path d="M6969 6369
L6269 6369
" />
<path d="M4869 2619
L5594 2619
" />
<path d="M6269 6369
L5594 5694
" />
<path d="M5594 5694
L5594 2619
" />
</g>
<g style="fill:#000000; fill-opacity:1.0; 
stroke:#000000; stroke-width:39.3701; stroke-opacity:1; 
stroke-linecap:round; stroke-linejoin:round;">
<polyline style="fill-rule:evenodd;"
points="9650,9600
289,9600
289,289
9650,289
9650,2049
9074,2049
8982,2087
8912,2157
8875,2246
7659,2246
7631,2178
7561,2107
7469,2069
7370,2069
7020,2069
6928,2107
6869,2166
6811,2107
6719,2069
6620,2069
6270,2069
6178,2107
6107,2177
6069,2269
6069,2271
5594,2271
5396,2271
5376,2222
5306,2151
5214,2113
5115,2113
4525,2113
4433,2151
4362,2221
4324,2313
4324,2413
4324,2925
4353,2994
4352,2996
4049,2996
4011,2957
3919,2919
3919,2779
3919,2409
3912,2391
3898,2377
3879,2369
3859,2369
3744,2369
3732,2382
3732,2507
3907,2507
3919,2494
3919,2409
3919,2779
3919,2694
3907,2682
3732,2682
3732,2807
3744,2819
3859,2819
3879,2819
3898,2812
3912,2797
3919,2779
3919,2919
3919,2919
3820,2919
3457,2919
3457,2807
3457,2682
3457,2507
3457,2382
3444,2369
3329,2369
3309,2369
3291,2377
3277,2391
3269,2409
3269,2494
3282,2507
3457,2507
3457,2682
3282,2682
3269,2694
3269,2779
3277,2797
3291,2812
3309,2819
3329,2819
3444,2819
3457,2807
3457,2919
3270,2919
3178,2957
3107,3027
3069,3119
3069,3219
3069,3569
3107,3661
3177,3731
3269,3769
3369,3769
3919,3769
4011,3731
4049,3693
4332,3693
4362,3767
4432,3837
4521,3874
4521,4511
4452,4539
4382,4609
4344,4701
4344,4801
4344,5037
4378,5119
4344,5201
4344,5301
4344,5521
4121,5521
4110,5494
4139,5425
4139,5326
4139,4814
4101,4722
4031,4651
3939,4613
3840,4613
3250,4613
3158,4651
3087,4721
3067,4771
2744,4771
2744,4770
2706,4678
2636,4607
2544,4569
2514,4569
2514,2880
2514,2309
2514,2289
2507,2271
2493,2256
2474,2249
2329,2249
2317,2261
2317,2447
2502,2447
2514,2434
2514,2309
2514,2880
2514,2754
2502,2742
2317,2742
2317,2927
2329,2939
2474,2939
2493,2932
2507,2918
2514,2899
2514,2880
2514,4569
2445,4569
2022,4569
2022,2927
2022,2742
2022,2447
2022,2261
2009,2249
1864,2249
1846,2256
1832,2271
1824,2289
1824,2309
1824,2434
1836,2447
2022,2447
2022,2742
1836,2742
1824,2754
1824,2880
1824,2899
1832,2918
1846,2932
1864,2939
2009,2939
2022,2927
2022,4569
1845,4569
1753,4607
1682,4677
1644,4769
1644,4869
1644,5469
1682,5561
1752,5631
1844,5669
1944,5669
2544,5669
2636,5631
2706,5561
2744,5469
2744,5468
3067,5468
3078,5494
3049,5563
3049,5663
3049,6175
3087,6267
3157,6337
3249,6375
3349,6375
3939,6375
4031,6337
4101,6267
4122,6218
4344,6218
4344,6301
4344,6537
4382,6629
4452,6699
4521,6728
4521,6744
4521,6744
4543,6855
4547,6878
4623,6991
5073,7441
5073,7441
5186,7516
5319,7543
5319,7543
5319,7543
7494,7543
7494,7543
7494,7543
7605,7520
7628,7516
7628,7516
7741,7441
8181,7000
8539,7000
8631,6962
8701,6892
8722,6843
9119,6843
9119,6843
9119,6843
9230,6820
9253,6816
9253,6816
9366,6741
9367,6740
9650,6740
9650,9600
" /> 
</g>
<g style="fill:#000000; fill-opacity:0.0; 
stroke:#000000; stroke-width:100; stroke-opacity:1; 
stroke-linecap:round; stroke-linejoin:round;">
<polyline fill="none;"
points="9650,9600
289,9600
289,289
9650,289
9650,2049
9074,2049
8982,2087
8912,2157
8875,2246
7659,2246
7631,2178
7561,2107
7469,2069
7370,2069
7020,2069
6928,2107
6869,2166
6811,2107
6719,2069
6620,2069
6270,2069
6178,2107
6107,2177
6069,2269
6069,2271
5594,2271
5396,2271
5376,2222
5306,2151
5214,2113
5115,2113
4525,2113
4433,2151
4362,2221
4324,2313
4324,2413
4324,2925
4353,2994
4352,2996
4049,2996
4011,2957
3919,2919
3919,2779
3919,2409
3912,2391
3898,2377
3879,2369
3859,2369
3744,2369
3732,2382
3732,2507
3907,2507
3919,2494
3919,2409
3919,2779
3919,2694
3907,2682
3732,2682
3732,2807
3744,2819
3859,2819
3879,2819
3898,2812
3912,2797
3919,2779
3919,2919
3919,2919
3820,2919
3457,2919
3457,2807
3457,2682
3457,2507
3457,2382
3444,2369
3329,2369
3309,2369
3291,2377
3277,2391
3269,2409
3269,2494
3282,2507
3457,2507
3457,2682
3282,2682
3269,2694
3269,2779
3277,2797
3291,2812
3309,2819
3329,2819
3444,2819
3457,2807
3457,2919
3270,2919
3178,2957
3107,3027
3069,3119
3069,3219
3069,3569
3107,3661
3177,3731
3269,3769
3369,3769
3919,3769
4011,3731
4049,3693
4332,3693
4362,3767
4432,3837
4521,3874
4521,4511
4452,4539
4382,4609
4344,4701
4344,4801
4344,5037
4378,5119
4344,5201
4344,5301
4344,5521
4121,5521
4110,5494
4139,5425
4139,5326
4139,4814
4101,4722
4031,4651
3939,4613
3840,4613
3250,4613
3158,4651
3087,4721
3067,4771
2744,4771
2744,4770
2706,4678
2636,4607
2544,4569
2514,4569
2514,2880
2514,2309
2514,2289
2507,2271
2493,2256
2474,2249
2329,2249
2317,2261
2317,2447
2502,2447
2514,2434
2514,2309
2514,2880
2514,2754
2502,2742
2317,2742
2317,2927
2329,2939
2474,2939
2493,2932
2507,2918
2514,2899
2514,2880
2514,4569
2445,4569
2022,4569
2022,2927
2022,2742
2022,2447
2022,2261
2009,2249
1864,2249
1846,2256
1832,2271
1824,2289
1824,2309
1824,2434
1836,2447
2022,2447
2022,2742
1836,2742
1824,2754
1824,2880
1824,2899
1832,2918
1846,2932
1864,2939
2009,2939
2022,2927
2022,4569
1845,4569
1753,4607
1682,4677
1644,4769
1644,4869
1644,5469
1682,5561
1752,5631
1844,5669
1944,5669
2544,5669
2636,5631
2706,5561
2744,5469
2744,5468
3067,5468
3078,5494
3049,5563
3049,5663
3049,6175
3087,6267
3157,6337
3249,6375
3349,6375
3939,6375
4031,6337
4101,6267
4122,6218
4344,6218
4344,6301
4344,6537
4382,6629
4452,6699
4521,6728
4521,6744
4521,6744
4543,6855
4547,6878
4623,6991
5073,7441
5073,7441
5186,7516
5319,7543
5319,7543
5319,7543
7494,7543
7494,7543
7494,7543
7605,7520
7628,7516
7628,7516
7741,7441
8181,7000
8539,7000
8631,6962
8701,6892
8722,6843
9119,6843
9119,6843
9119,6843
9230,6820
9253,6816
9253,6816
9366,6741
9367,6740
9650,6740
9650,9600
" /> 
</g>
<g style="fill:#FFFFFF; fill-opacity:0.0; 
stroke:#FFFFFF; stroke-width:39.3701; stroke-opacity:1; 
stroke-linecap:round; stroke-linejoin:round;">
</g>
<g style="fill:#FFFFFF; fill-opacity:1.0; 
stroke:#FFFFFF; stroke-width:39.3701; stroke-opacity:1; 
stroke-linecap:round; stroke-linejoin:round;">
<circle cx="2194.69" cy="5119.69" r="180.315" /> 
</g> 
</svg>
