<?xml version="1.0" standalone="no"?>
 <!DOCTYPE svg PUBLIC "-//W3C//DTD SVG 1.1//EN" 
 "http://www.w3.org/Graphics/SVG/1.1/DTD/svg11.dtd"> 
<svg xmlns="http://www.w3.org/2000/svg" version="1.1" 
    width="1.83896cm" height="1.69672cm" viewBox="0 0 7240 6680 ">
<title>SVG Picture created as active-electrode-F_Cu.svg date 2015/06/30 20:51:11 </title>
  <desc>Picture generated by PCBNEW </desc>
<g style="fill:#000000; fill-opacity:1;stroke:#000000; stroke-opacity:1;
stroke-linecap:round; stroke-linejoin:round; "
 transform="translate(0 0) scale(1 1)">
</g>
<g style="fill:#000000; fill-opacity:0.0; 
stroke:#000000; stroke-width:39.3701; stroke-opacity:1; 
stroke-linecap:round; stroke-linejoin:round;">
<path d="M560 5831
L560 31
" />
<path d="M6710 5831
L560 5831
" />
<path d="M6710 5806
L6710 5831
" />
<path d="M6710 31
L6710 5806
" />
<path d="M6685 31
L6710 31
" />
<path d="M560 31
L6685 31
" />
</g>
<g style="fill:#000000; fill-opacity:1.0; 
stroke:#000000; stroke-width:39.3701; stroke-opacity:1; 
stroke-linecap:round; stroke-linejoin:round;">
<polyline style="fill-rule:evenodd;"
points="5380,3336
5380,2775
5940,2775
5940,3336
5380,3336
" /> 
<polyline style="fill-rule:evenodd;"
points="2430,5136
2430,4575
2990,4575
2990,5136
2430,5136
" /> 
<polyline style="fill-rule:evenodd;"
points="1105,4011
1105,3450
1665,3450
1665,4011
1105,4011
" /> 
<polyline style="fill-rule:evenodd;"
points="4479,2307
4991,2307
4991,2504
4479,2504
4479,2307
" /> 
<polyline style="fill-rule:evenodd;"
points="2379,2307
2891,2307
2891,2504
2379,2504
2379,2307
" /> 
<polyline style="fill-rule:evenodd;"
points="4479,2807
4991,2807
4991,3004
4479,3004
4479,2807
" /> 
<polyline style="fill-rule:evenodd;"
points="4479,3307
4991,3307
4991,3504
4479,3504
4479,3307
" /> 
<polyline style="fill-rule:evenodd;"
points="4479,3807
4991,3807
4991,4004
4479,4004
4479,3807
" /> 
<polyline style="fill-rule:evenodd;"
points="2379,2807
2891,2807
2891,3004
2379,3004
2379,2807
" /> 
<polyline style="fill-rule:evenodd;"
points="2379,3307
2891,3307
2891,3504
2379,3504
2379,3307
" /> 
<polyline style="fill-rule:evenodd;"
points="2379,3807
2891,3807
2891,4004
2379,4004
2379,3807
" /> 
<polyline style="fill-rule:evenodd;"
points="2990,1861
2480,1861
2480,1550
2990,1550
2990,1861
" /> 
<polyline style="fill-rule:evenodd;"
points="2990,1111
2480,1111
2480,800
2990,800
2990,1111
" /> 
<polyline style="fill-rule:evenodd;"
points="1405,2000
1915,2000
1915,2311
1405,2311
1405,2000
" /> 
<polyline style="fill-rule:evenodd;"
points="1405,2750
1915,2750
1915,3061
1405,3061
1405,2750
" /> 
<polyline style="fill-rule:evenodd;"
points="3380,800
3890,800
3890,1111
3380,1111
3380,800
" /> 
<polyline style="fill-rule:evenodd;"
points="3380,1550
3890,1550
3890,1861
3380,1861
3380,1550
" /> 
<polyline style="fill-rule:evenodd;"
points="4790,1836
4280,1836
4280,1525
4790,1525
4790,1836
" /> 
<polyline style="fill-rule:evenodd;"
points="4790,1086
4280,1086
4280,775
4790,775
4790,1086
" /> 
<polyline style="fill-rule:evenodd;"
points="4465,4625
4465,5136
4155,5136
4155,4625
4465,4625
" /> 
<polyline style="fill-rule:evenodd;"
points="3715,4625
3715,5136
3405,5136
3405,4625
3715,4625
" /> 
<polyline style="fill-rule:evenodd;"
points="1209,5331
1209,4780
1760,4780
1760,5331
1209,5331
" /> 
<polyline style="fill-rule:evenodd;"
points="5484,1231
5484,680
6035,680
6035,1231
5484,1231
" /> 
<polyline style="fill-rule:evenodd;"
points="1234,1231
1234,680
1785,680
1785,1231
1234,1231
" /> 
<polyline style="fill-rule:evenodd;"
points="5484,5331
5484,4780
6035,4780
6035,5331
5484,5331
" /> 
</g>
<g style="fill:#000000; fill-opacity:1.0; 
stroke:#000000; stroke-width:200; stroke-opacity:1; 
stroke-linecap:round; stroke-linejoin:round;">
<path d="M4335 4531
L4310 4556
" />
<path d="M4360 2406
L4060 2706
" />
<path d="M4060 2706
L4060 4256
" />
<path d="M4060 4256
L4335 4531
" />
<path d="M4735 2406
L4360 2406
" />
<path d="M4310 4556
L4310 4881
" />
<path d="M5660 3056
L5010 2406
" />
<path d="M5010 2406
L4735 2406
" />
<path d="M4335 4856
L4310 4881
" />
<path d="M3560 4881
L3635 4806
" />
<path d="M3635 4806
L3635 1706
" />
<path d="M2710 4856
L2635 4781
" />
<path d="M2635 4781
L2635 3906
" />
<path d="M2710 4856
L2735 4881
" />
<path d="M2735 4881
L3560 4881
" />
<path d="M4735 3406
L4735 2906
" />
<path d="M3635 956
L3660 931
" />
<path d="M3660 931
L4535 931
" />
<path d="M2735 956
L3635 956
" />
<path d="M1660 2156
L1735 2081
" />
<path d="M1735 2081
L2735 2081
" />
<path d="M2635 2406
L2735 2306
" />
<path d="M2735 2306
L2735 2081
" />
<path d="M2735 2081
L2735 1706
" />
<path d="M2635 2906
L2635 2406
" />
<path d="M1660 2906
L1385 3181
" />
<path d="M1385 3181
L1385 3731
" />
<path d="M2635 3406
L2135 3406
" />
<path d="M2010 4531
L1485 5056
" />
<path d="M2010 3531
L2010 4531
" />
<path d="M2135 3406
L2010 3531
" />
</g>
<g style="fill:#000000; fill-opacity:1.0; 
stroke:#000000; stroke-width:39.3701; stroke-opacity:1; 
stroke-linecap:round; stroke-linejoin:round;">
<polyline style="fill-rule:evenodd;"
points="3285,3524
2960,3524
2960,3477
2948,3465
2773,3465
2773,3524
2497,3524
2497,3465
2322,3465
2309,3477
2309,3524
1935,3524
1935,3381
1914,3331
1984,3331
2076,3293
2081,3288
2309,3288
2309,3334
2322,3347
2497,3347
2497,3288
2773,3288
2773,3347
2948,3347
2960,3334
2960,3288
3285,3288
3285,3524
" /> 
</g>
<g style="fill:#000000; fill-opacity:0.0; 
stroke:#000000; stroke-width:100; stroke-opacity:1; 
stroke-linecap:round; stroke-linejoin:round;">
<polyline fill="none;"
points="3285,3524
2960,3524
2960,3477
2948,3465
2773,3465
2773,3524
2497,3524
2497,3465
2322,3465
2309,3477
2309,3524
1935,3524
1935,3381
1914,3331
1984,3331
2076,3293
2081,3288
2309,3288
2309,3334
2322,3347
2497,3347
2497,3288
2773,3288
2773,3347
2948,3347
2960,3334
2960,3288
3285,3288
3285,3524
" /> 
</g>
<g style="fill:#000000; fill-opacity:1.0; 
stroke:#000000; stroke-width:39.3701; stroke-opacity:1; 
stroke-linecap:round; stroke-linejoin:round;">
<polyline style="fill-rule:evenodd;"
points="6440,5561
6210,5561
6210,3306
6210,2706
6172,2614
6105,2547
6105,1241
6105,670
6105,651
6097,632
6083,618
6065,611
5920,611
5907,623
5907,808
6093,808
6105,796
6105,670
6105,1241
6105,1116
6093,1103
5907,1103
5907,1289
5920,1301
6065,1301
6083,1293
6097,1279
6105,1261
6105,1241
6105,2547
6102,2544
6010,2506
5910,2506
5612,2506
5612,1289
5612,1103
5612,808
5612,623
5600,611
5455,611
5436,618
5422,632
5415,651
5415,670
5415,796
5427,808
5612,808
5612,1103
5427,1103
5415,1116
5415,1241
5415,1261
5422,1279
5436,1293
5455,1301
5600,1301
5612,1289
5612,2506
5605,2506
5257,2158
5188,2112
5188,2112
5152,2076
5060,2038
4961,2038
4860,2038
4860,1866
4860,1496
4852,1478
4838,1463
4820,1456
4800,1456
4685,1456
4672,1468
4672,1593
4847,1593
4860,1581
4860,1496
4860,1866
4860,1781
4847,1768
4672,1768
4672,1893
4685,1906
4800,1906
4820,1906
4838,1898
4852,1884
4860,1866
4860,2038
4410,2038
4397,2043
4397,1893
4397,1768
4397,1593
4397,1468
4385,1456
4270,1456
4250,1456
4231,1463
4217,1478
4210,1496
4210,1581
4222,1593
4397,1593
4397,1768
4222,1768
4210,1781
4210,1866
4217,1884
4231,1898
4250,1906
4270,1906
4385,1906
4397,1893
4397,2043
4366,2056
4360,2056
4360,2056
4226,2082
4112,2158
4112,2158
3985,2286
3985,2120
4051,2093
4122,2023
4160,1931
4160,1831
4160,1481
4122,1389
4063,1331
4097,1297
4118,1318
4210,1356
4309,1356
4859,1356
4951,1318
5022,1248
5060,1156
5060,1056
5060,706
5022,614
4952,544
4860,506
4760,506
4210,506
4118,544
4081,581
4063,581
4052,569
3960,531
3860,531
3310,531
3218,569
3185,602
3152,569
3060,531
2960,531
2410,531
2318,569
2248,639
2210,731
2210,830
2210,1180
2248,1272
2306,1331
2248,1389
2210,1481
2210,1580
2210,1731
1935,1731
1885,1731
1855,1731
1855,1241
1855,670
1855,651
1847,632
1833,618
1815,611
1670,611
1657,623
1657,808
1843,808
1855,796
1855,670
1855,1241
1855,1116
1843,1103
1657,1103
1657,1289
1670,1301
1815,1301
1833,1293
1847,1279
1855,1261
1855,1241
1855,1731
1362,1731
1362,1289
1362,1103
1362,808
1362,623
1350,611
1205,611
1186,618
1172,632
1165,651
1165,670
1165,796
1177,808
1362,808
1362,1103
1177,1103
1165,1116
1165,1241
1165,1261
1172,1279
1186,1293
1205,1301
1350,1301
1362,1289
1362,1731
1335,1731
1243,1769
1173,1839
1135,1931
1135,2030
1135,2380
1173,2472
1231,2531
1173,2589
1135,2681
1135,2780
1135,2937
1061,3047
1035,3181
1035,3181
943,3219
873,3289
835,3381
835,3480
835,4080
873,4172
943,4243
1035,4281
1134,4281
1734,4281
1826,4243
1897,4173
1935,4081
1935,3981
1935,3574
2223,3574
2218,3576
2148,3646
2109,3738
2109,3837
2109,4073
2147,4165
2218,4236
2285,4264
2285,4337
2268,4344
2198,4414
2160,4506
2160,4605
2160,5205
2198,5297
2268,5368
2360,5406
2459,5406
3059,5406
3151,5368
3197,5322
3243,5368
3335,5406
3434,5406
3784,5406
3876,5368
3935,5309
3993,5368
4085,5406
4184,5406
4534,5406
4626,5368
4697,5298
4735,5206
4735,5106
4735,4556
4697,4464
4665,4433
4658,4397
4582,4283
4573,4274
5060,4274
5152,4236
5222,4166
5260,4074
5260,3974
5260,3738
5226,3656
5256,3583
5310,3606
5409,3606
6009,3606
6101,3568
6172,3498
6210,3406
6210,3306
6210,5561
6105,5561
6105,5341
6105,4770
6105,4751
6097,4732
6083,4718
6065,4711
5920,4711
5907,4723
5907,4908
6093,4908
6105,4896
6105,4770
6105,5341
6105,5216
6093,5203
5907,5203
5907,5389
5920,5401
6065,5401
6083,5393
6097,5379
6105,5361
6105,5341
6105,5561
5612,5561
5612,5389
5612,5203
5612,4908
5612,4723
5600,4711
5455,4711
5436,4718
5422,4732
5415,4751
5415,4770
5415,4896
5427,4908
5612,4908
5612,5203
5427,5203
5415,5216
5415,5341
5415,5361
5422,5379
5436,5393
5455,5401
5600,5401
5612,5389
5612,5561
1830,5561
1830,5341
1830,4770
1830,4751
1822,4732
1808,4718
1790,4711
1645,4711
1632,4723
1632,4908
1818,4908
1830,4896
1830,4770
1830,5341
1830,5216
1818,5203
1632,5203
1632,5389
1645,5401
1790,5401
1808,5393
1822,5379
1830,5361
1830,5341
1830,5561
1337,5561
1337,5389
1337,5203
1337,4908
1337,4723
1325,4711
1180,4711
1161,4718
1147,4732
1140,4751
1140,4770
1140,4896
1152,4908
1337,4908
1337,5203
1152,5203
1140,5216
1140,5341
1140,5361
1147,5379
1161,5393
1180,5401
1325,5401
1337,5389
1337,5561
830,5561
830,300
6440,300
6440,5561
" /> 
</g>
<g style="fill:#000000; fill-opacity:0.0; 
stroke:#000000; stroke-width:100; stroke-opacity:1; 
stroke-linecap:round; stroke-linejoin:round;">
<polyline fill="none;"
points="6440,5561
6210,5561
6210,3306
6210,2706
6172,2614
6105,2547
6105,1241
6105,670
6105,651
6097,632
6083,618
6065,611
5920,611
5907,623
5907,808
6093,808
6105,796
6105,670
6105,1241
6105,1116
6093,1103
5907,1103
5907,1289
5920,1301
6065,1301
6083,1293
6097,1279
6105,1261
6105,1241
6105,2547
6102,2544
6010,2506
5910,2506
5612,2506
5612,1289
5612,1103
5612,808
5612,623
5600,611
5455,611
5436,618
5422,632
5415,651
5415,670
5415,796
5427,808
5612,808
5612,1103
5427,1103
5415,1116
5415,1241
5415,1261
5422,1279
5436,1293
5455,1301
5600,1301
5612,1289
5612,2506
5605,2506
5257,2158
5188,2112
5188,2112
5152,2076
5060,2038
4961,2038
4860,2038
4860,1866
4860,1496
4852,1478
4838,1463
4820,1456
4800,1456
4685,1456
4672,1468
4672,1593
4847,1593
4860,1581
4860,1496
4860,1866
4860,1781
4847,1768
4672,1768
4672,1893
4685,1906
4800,1906
4820,1906
4838,1898
4852,1884
4860,1866
4860,2038
4410,2038
4397,2043
4397,1893
4397,1768
4397,1593
4397,1468
4385,1456
4270,1456
4250,1456
4231,1463
4217,1478
4210,1496
4210,1581
4222,1593
4397,1593
4397,1768
4222,1768
4210,1781
4210,1866
4217,1884
4231,1898
4250,1906
4270,1906
4385,1906
4397,1893
4397,2043
4366,2056
4360,2056
4360,2056
4226,2082
4112,2158
4112,2158
3985,2286
3985,2120
4051,2093
4122,2023
4160,1931
4160,1831
4160,1481
4122,1389
4063,1331
4097,1297
4118,1318
4210,1356
4309,1356
4859,1356
4951,1318
5022,1248
5060,1156
5060,1056
5060,706
5022,614
4952,544
4860,506
4760,506
4210,506
4118,544
4081,581
4063,581
4052,569
3960,531
3860,531
3310,531
3218,569
3185,602
3152,569
3060,531
2960,531
2410,531
2318,569
2248,639
2210,731
2210,830
2210,1180
2248,1272
2306,1331
2248,1389
2210,1481
2210,1580
2210,1731
1935,1731
1885,1731
1855,1731
1855,1241
1855,670
1855,651
1847,632
1833,618
1815,611
1670,611
1657,623
1657,808
1843,808
1855,796
1855,670
1855,1241
1855,1116
1843,1103
1657,1103
1657,1289
1670,1301
1815,1301
1833,1293
1847,1279
1855,1261
1855,1241
1855,1731
1362,1731
1362,1289
1362,1103
1362,808
1362,623
1350,611
1205,611
1186,618
1172,632
1165,651
1165,670
1165,796
1177,808
1362,808
1362,1103
1177,1103
1165,1116
1165,1241
1165,1261
1172,1279
1186,1293
1205,1301
1350,1301
1362,1289
1362,1731
1335,1731
1243,1769
1173,1839
1135,1931
1135,2030
1135,2380
1173,2472
1231,2531
1173,2589
1135,2681
1135,2780
1135,2937
1061,3047
1035,3181
1035,3181
943,3219
873,3289
835,3381
835,3480
835,4080
873,4172
943,4243
1035,4281
1134,4281
1734,4281
1826,4243
1897,4173
1935,4081
1935,3981
1935,3574
2223,3574
2218,3576
2148,3646
2109,3738
2109,3837
2109,4073
2147,4165
2218,4236
2285,4264
2285,4337
2268,4344
2198,4414
2160,4506
2160,4605
2160,5205
2198,5297
2268,5368
2360,5406
2459,5406
3059,5406
3151,5368
3197,5322
3243,5368
3335,5406
3434,5406
3784,5406
3876,5368
3935,5309
3993,5368
4085,5406
4184,5406
4534,5406
4626,5368
4697,5298
4735,5206
4735,5106
4735,4556
4697,4464
4665,4433
4658,4397
4582,4283
4573,4274
5060,4274
5152,4236
5222,4166
5260,4074
5260,3974
5260,3738
5226,3656
5256,3583
5310,3606
5409,3606
6009,3606
6101,3568
6172,3498
6210,3406
6210,3306
6210,5561
6105,5561
6105,5341
6105,4770
6105,4751
6097,4732
6083,4718
6065,4711
5920,4711
5907,4723
5907,4908
6093,4908
6105,4896
6105,4770
6105,5341
6105,5216
6093,5203
5907,5203
5907,5389
5920,5401
6065,5401
6083,5393
6097,5379
6105,5361
6105,5341
6105,5561
5612,5561
5612,5389
5612,5203
5612,4908
5612,4723
5600,4711
5455,4711
5436,4718
5422,4732
5415,4751
5415,4770
5415,4896
5427,4908
5612,4908
5612,5203
5427,5203
5415,5216
5415,5341
5415,5361
5422,5379
5436,5393
5455,5401
5600,5401
5612,5389
5612,5561
1830,5561
1830,5341
1830,4770
1830,4751
1822,4732
1808,4718
1790,4711
1645,4711
1632,4723
1632,4908
1818,4908
1830,4896
1830,4770
1830,5341
1830,5216
1818,5203
1632,5203
1632,5389
1645,5401
1790,5401
1808,5393
1822,5379
1830,5361
1830,5341
1830,5561
1337,5561
1337,5389
1337,5203
1337,4908
1337,4723
1325,4711
1180,4711
1161,4718
1147,4732
1140,4751
1140,4770
1140,4896
1152,4908
1337,4908
1337,5203
1152,5203
1140,5216
1140,5341
1140,5361
1147,5379
1161,5393
1180,5401
1325,5401
1337,5389
1337,5561
830,5561
830,300
6440,300
6440,5561
" /> 
</g>
<g style="fill:#FFFFFF; fill-opacity:0.0; 
stroke:#FFFFFF; stroke-width:39.3701; stroke-opacity:1; 
stroke-linecap:round; stroke-linejoin:round;">
</g>
<g style="fill:#FFFFFF; fill-opacity:1.0; 
stroke:#FFFFFF; stroke-width:39.3701; stroke-opacity:1; 
stroke-linecap:round; stroke-linejoin:round;">
<circle cx="1485.33" cy="5056.3" r="137.795" /> 
<circle cx="5760.33" cy="956.299" r="137.795" /> 
<circle cx="1510.33" cy="956.299" r="137.795" /> 
<circle cx="5760.33" cy="5056.3" r="137.795" /> 
</g> 
</svg>
