<?xml version="1.0" standalone="no"?>
 <!DOCTYPE svg PUBLIC "-//W3C//DTD SVG 1.1//EN" 
 "http://www.w3.org/Graphics/SVG/1.1/DTD/svg11.dtd"> 
<svg xmlns="http://www.w3.org/2000/svg" version="1.1" 
    width="7.01802cm" height="5.01142cm" viewBox="0 0 27630 19730 ">
<title>SVG Picture created as amp-board-F_Cu.svg date 2016/01/31 11:29:16 </title>
  <desc>Picture generated by PCBNEW </desc>
<g style="fill:#000000; fill-opacity:1;stroke:#000000; stroke-opacity:1;
stroke-linecap:round; stroke-linejoin:round; "
 transform="translate(0 0) scale(1 1)">
</g>
<g style="fill:#000000; fill-opacity:0.0; 
stroke:#000000; stroke-width:39.3701; stroke-opacity:1; 
stroke-linecap:round; stroke-linejoin:round;">
<path d="M19 19
L44 19
" />
<path d="M19 19719
L19 19
" />
<path d="M27619 19719
L19 19719
" />
<path d="M27619 19
L27619 19719
" />
<path d="M19 19
L27619 19
" />
</g>
<g style="fill:#000000; fill-opacity:1.0; 
stroke:#000000; stroke-width:39.3701; stroke-opacity:1; 
stroke-linecap:round; stroke-linejoin:round;">
<polyline style="fill-rule:evenodd;"
points="7964,10664
8375,10664
8375,10825
7964,10825
7964,10664
" /> 
<polyline style="fill-rule:evenodd;"
points="7964,11164
8375,11164
8375,11325
7964,11325
7964,11164
" /> 
<polyline style="fill-rule:evenodd;"
points="7964,11664
8375,11664
8375,11825
7964,11825
7964,11664
" /> 
<polyline style="fill-rule:evenodd;"
points="7964,12164
8375,12164
8375,12325
7964,12325
7964,12164
" /> 
<polyline style="fill-rule:evenodd;"
points="5464,12164
5875,12164
5875,12325
5464,12325
5464,12164
" /> 
<polyline style="fill-rule:evenodd;"
points="5464,11664
5875,11664
5875,11825
5464,11825
5464,11664
" /> 
<polyline style="fill-rule:evenodd;"
points="5464,11164
5875,11164
5875,11325
5464,11325
5464,11164
" /> 
<polyline style="fill-rule:evenodd;"
points="5464,10664
5875,10664
5875,10825
5464,10825
5464,10664
" /> 
<polyline style="fill-rule:evenodd;"
points="9925,4900
9414,4900
9414,4589
9925,4589
9925,4900
" /> 
<polyline style="fill-rule:evenodd;"
points="9925,4150
9414,4150
9414,3839
9925,3839
9925,4150
" /> 
<polyline style="fill-rule:evenodd;"
points="18814,8239
19325,8239
19325,8550
18814,8550
18814,8239
" /> 
<polyline style="fill-rule:evenodd;"
points="18814,8989
19325,8989
19325,9300
18814,9300
18814,8989
" /> 
<polyline style="fill-rule:evenodd;"
points="18150,7300
17639,7300
17639,6989
18150,6989
18150,7300
" /> 
<polyline style="fill-rule:evenodd;"
points="18150,6550
17639,6550
17639,6239
18150,6239
18150,6550
" /> 
<polyline style="fill-rule:evenodd;"
points="16014,8264
16525,8264
16525,8575
16014,8575
16014,8264
" /> 
<polyline style="fill-rule:evenodd;"
points="16014,9014
16525,9014
16525,9325
16014,9325
16014,9014
" /> 
<polyline style="fill-rule:evenodd;"
points="15989,6239
16500,6239
16500,6550
15989,6550
15989,6239
" /> 
<polyline style="fill-rule:evenodd;"
points="15989,6989
16500,6989
16500,7300
15989,7300
15989,6989
" /> 
<polyline style="fill-rule:evenodd;"
points="8200,3050
7689,3050
7689,2739
8200,2739
8200,3050
" /> 
<polyline style="fill-rule:evenodd;"
points="8200,2300
7689,2300
7689,1989
8200,1989
8200,2300
" /> 
<polyline style="fill-rule:evenodd;"
points="6100,3025
5589,3025
5589,2714
6100,2714
6100,3025
" /> 
<polyline style="fill-rule:evenodd;"
points="6100,2275
5589,2275
5589,1964
6100,1964
6100,2275
" /> 
<polyline style="fill-rule:evenodd;"
points="5414,8314
5925,8314
5925,8625
5414,8625
5414,8314
" /> 
<polyline style="fill-rule:evenodd;"
points="5414,9064
5925,9064
5925,9375
5414,9375
5414,9064
" /> 
<polyline style="fill-rule:evenodd;"
points="12150,1914
12150,2425
11839,2425
11839,1914
12150,1914
" /> 
<polyline style="fill-rule:evenodd;"
points="11400,1914
11400,2425
11089,2425
11089,1914
11400,1914
" /> 
<polyline style="fill-rule:evenodd;"
points="7950,7275
7439,7275
7439,6964
7950,6964
7950,7275
" /> 
<polyline style="fill-rule:evenodd;"
points="7950,6525
7439,6525
7439,6214
7950,6214
7950,6525
" /> 
<polyline style="fill-rule:evenodd;"
points="12875,13239
12875,13750
12564,13750
12564,13239
12875,13239
" /> 
<polyline style="fill-rule:evenodd;"
points="12125,13239
12125,13750
11814,13750
11814,13239
12125,13239
" /> 
<polyline style="fill-rule:evenodd;"
points="11814,12000
11814,11489
12125,11489
12125,12000
11814,12000
" /> 
<polyline style="fill-rule:evenodd;"
points="12564,12000
12564,11489
12875,11489
12875,12000
12564,12000
" /> 
<polyline style="fill-rule:evenodd;"
points="7975,9325
7464,9325
7464,9014
7975,9014
7975,9325
" /> 
<polyline style="fill-rule:evenodd;"
points="7975,8575
7464,8575
7464,8264
7975,8264
7975,8575
" /> 
<polyline style="fill-rule:evenodd;"
points="9600,9325
9089,9325
9089,9014
9600,9014
9600,9325
" /> 
<polyline style="fill-rule:evenodd;"
points="9600,8575
9089,8575
9089,8264
9600,8264
9600,8575
" /> 
<polyline style="fill-rule:evenodd;"
points="16650,5050
16139,5050
16139,4739
16650,4739
16650,5050
" /> 
<polyline style="fill-rule:evenodd;"
points="16650,4300
16139,4300
16139,3989
16650,3989
16650,4300
" /> 
<polyline style="fill-rule:evenodd;"
points="18289,3989
18800,3989
18800,4300
18289,4300
18289,3989
" /> 
<polyline style="fill-rule:evenodd;"
points="18289,4739
18800,4739
18800,5050
18289,5050
18289,4739
" /> 
<polyline style="fill-rule:evenodd;"
points="1950,13800
1439,13800
1439,13289
1950,13289
1950,13800
" /> 
<circle cx="1694.69" cy="12544.7" r="255.315" /> 
<circle cx="1694.69" cy="11544.7" r="255.315" /> 
<circle cx="1694.69" cy="10544.7" r="255.315" /> 
<circle cx="1694.69" cy="9544.69" r="255.315" /> 
<circle cx="1694.69" cy="8544.69" r="255.315" /> 
<circle cx="1694.69" cy="7544.69" r="255.315" /> 
<polyline style="fill-rule:evenodd;"
points="10675,16925
9914,16925
9914,16364
10675,16364
10675,16925
" /> 
<polyline style="fill-rule:evenodd;"
points="10675,15625
9914,15625
9914,15064
10675,15064
10675,15625
" /> 
<polyline style="fill-rule:evenodd;"
points="7714,15039
8475,15039
8475,15600
7714,15600
7714,15039
" /> 
<polyline style="fill-rule:evenodd;"
points="7714,16339
8475,16339
8475,16900
7714,16900
7714,16339
" /> 
<polyline style="fill-rule:evenodd;"
points="6350,16875
5589,16875
5589,16314
6350,16314
6350,16875
" /> 
<polyline style="fill-rule:evenodd;"
points="6350,15575
5589,15575
5589,15014
6350,15014
6350,15575
" /> 
<polyline style="fill-rule:evenodd;"
points="3564,15014
4325,15014
4325,15575
3564,15575
3564,15014
" /> 
<polyline style="fill-rule:evenodd;"
points="3564,16314
4325,16314
4325,16875
3564,16875
3564,16314
" /> 
<polyline style="fill-rule:evenodd;"
points="10175,11100
9664,11100
9664,10789
10175,10789
10175,11100
" /> 
<polyline style="fill-rule:evenodd;"
points="10175,10350
9664,10350
9664,10039
10175,10039
10175,10350
" /> 
<polyline style="fill-rule:evenodd;"
points="4300,13239
4300,13750
3989,13750
3989,13239
4300,13239
" /> 
<polyline style="fill-rule:evenodd;"
points="3550,13239
3550,13750
3239,13750
3239,13239
3550,13239
" /> 
<polyline style="fill-rule:evenodd;"
points="19939,15925
19939,15414
20250,15414
20250,15925
19939,15925
" /> 
<polyline style="fill-rule:evenodd;"
points="20689,15925
20689,15414
21000,15414
21000,15925
20689,15925
" /> 
<polyline style="fill-rule:evenodd;"
points="17789,3175
17789,2664
18100,2664
18100,3175
17789,3175
" /> 
<polyline style="fill-rule:evenodd;"
points="18539,3175
18539,2664
18850,2664
18850,3175
18539,3175
" /> 
<polyline style="fill-rule:evenodd;"
points="22490,6328
21899,6328
21899,5343
22490,5343
22490,6328
" /> 
<polyline style="fill-rule:evenodd;"
points="22490,7746
21899,7746
21899,6761
22490,6761
22490,7746
" /> 
<polyline style="fill-rule:evenodd;"
points="22440,2803
21849,2803
21849,1818
22440,1818
22440,2803
" /> 
<polyline style="fill-rule:evenodd;"
points="22440,4221
21849,4221
21849,3236
22440,3236
22440,4221
" /> 
<polyline style="fill-rule:evenodd;"
points="26050,7350
25539,7350
25539,6839
26050,6839
26050,7350
" /> 
<circle cx="25794.7" cy="6094.69" r="255.315" /> 
<circle cx="25794.7" cy="5094.69" r="255.315" /> 
<polyline style="fill-rule:evenodd;"
points="26100,15900
25589,15900
25589,15389
26100,15389
26100,15900
" /> 
<circle cx="25844.7" cy="14644.7" r="255.315" /> 
<circle cx="25844.7" cy="13644.7" r="255.315" /> 
<circle cx="25844.7" cy="12644.7" r="255.315" /> 
<circle cx="25844.7" cy="11644.7" r="255.315" /> 
<circle cx="25844.7" cy="10644.7" r="255.315" /> 
<circle cx="25844.7" cy="9644.69" r="255.315" /> 
<polyline style="fill-rule:evenodd;"
points="11720,6506
11720,6033
11799,6033
11799,6506
11720,6506
" /> 
<polyline style="fill-rule:evenodd;"
points="11970,6506
11970,6033
12049,6033
12049,6506
11970,6506
" /> 
<polyline style="fill-rule:evenodd;"
points="12230,6506
12230,6033
12309,6033
12309,6506
12230,6506
" /> 
<polyline style="fill-rule:evenodd;"
points="12480,6506
12480,6033
12559,6033
12559,6506
12480,6506
" /> 
<polyline style="fill-rule:evenodd;"
points="12740,6506
12740,6033
12819,6033
12819,6506
12740,6506
" /> 
<polyline style="fill-rule:evenodd;"
points="12995,6506
12995,6033
13074,6033
13074,6506
12995,6506
" /> 
<polyline style="fill-rule:evenodd;"
points="13250,6506
13250,6033
13329,6033
13329,6506
13250,6506
" /> 
<polyline style="fill-rule:evenodd;"
points="13250,4306
13250,3833
13329,3833
13329,4306
13250,4306
" /> 
<polyline style="fill-rule:evenodd;"
points="12995,4306
12995,3833
13074,3833
13074,4306
12995,4306
" /> 
<polyline style="fill-rule:evenodd;"
points="12740,4306
12740,3833
12819,3833
12819,4306
12740,4306
" /> 
<polyline style="fill-rule:evenodd;"
points="12480,4306
12480,3833
12559,3833
12559,4306
12480,4306
" /> 
<polyline style="fill-rule:evenodd;"
points="12225,4306
12225,3833
12304,3833
12304,4306
12225,4306
" /> 
<polyline style="fill-rule:evenodd;"
points="11970,4306
11970,3833
12049,3833
12049,4306
11970,4306
" /> 
<polyline style="fill-rule:evenodd;"
points="11715,4306
11715,3833
11794,3833
11794,4306
11715,4306
" /> 
<polyline style="fill-rule:evenodd;"
points="20764,12355
21225,12355
21225,12466
20764,12466
20764,12355
" /> 
<polyline style="fill-rule:evenodd;"
points="20764,12611
21225,12611
21225,12722
20764,12722
20764,12611
" /> 
<polyline style="fill-rule:evenodd;"
points="20764,12867
21225,12867
21225,12978
20764,12978
20764,12867
" /> 
<polyline style="fill-rule:evenodd;"
points="20764,13123
21225,13123
21225,13234
20764,13234
20764,13123
" /> 
<polyline style="fill-rule:evenodd;"
points="22464,13123
22925,13123
22925,13234
22464,13234
22464,13123
" /> 
<polyline style="fill-rule:evenodd;"
points="22464,12867
22925,12867
22925,12978
22464,12978
22464,12867
" /> 
<polyline style="fill-rule:evenodd;"
points="22464,12611
22925,12611
22925,12722
22464,12722
22464,12611
" /> 
<polyline style="fill-rule:evenodd;"
points="22464,12355
22925,12355
22925,12466
22464,12466
22464,12355
" /> 
<circle cx="3819.69" cy="5869.69" r="177.165" /> 
<circle cx="3819.69" cy="3894.69" r="177.165" /> 
<circle cx="16294.7" cy="17769.7" r="177.165" /> 
<circle cx="16294.7" cy="15669.7" r="177.165" /> 
<circle cx="19094.7" cy="10469.7" r="177.165" /> 
<circle cx="16294.7" cy="10419.7" r="177.165" /> 
<circle cx="14969.7" cy="4094.69" r="177.165" /> 
<circle cx="14944.7" cy="8219.69" r="177.165" /> 
<circle cx="11769.7" cy="10144.7" r="177.165" /> 
<circle cx="13944.7" cy="10169.7" r="177.165" /> 
<circle cx="15019.7" cy="2344.69" r="177.165" /> 
<circle cx="15019.7" cy="869.685" r="177.165" /> 
<circle cx="16444.7" cy="869.685" r="177.165" /> 
<circle cx="16444.7" cy="2294.69" r="177.165" /> 
<circle cx="18569.7" cy="15719.7" r="177.165" /> 
<circle cx="18569.7" cy="17644.7" r="177.165" /> 
<circle cx="5794.69" cy="5844.69" r="177.165" /> 
<circle cx="5819.69" cy="3894.69" r="177.165" /> 
</g>
<g style="fill:#000000; fill-opacity:1.0; 
stroke:#000000; stroke-width:200; stroke-opacity:1; 
stroke-linecap:round; stroke-linejoin:round;">
<path d="M25844 9644
L25844 7144
" />
<path d="M25844 7144
L25794 7094
" />
</g>
<g style="fill:#000000; fill-opacity:1.0; 
stroke:#000000; stroke-width:196.85; stroke-opacity:1; 
stroke-linecap:round; stroke-linejoin:round;">
<path d="M18544 4144
L19944 4144
" />
<path d="M19944 4144
L20069 4019
" />
<path d="M18694 2919
L18969 2919
" />
<path d="M18969 2919
L20069 4019
" />
<path d="M20069 4019
L20069 5835
" />
</g>
<g style="fill:#000000; fill-opacity:1.0; 
stroke:#000000; stroke-width:100; stroke-opacity:1; 
stroke-linecap:round; stroke-linejoin:round;">
<path d="M12519 6269
L12519 7594
" />
<path d="M12519 7594
L9919 10194
" />
<path d="M12519 6269
L12519 5919
" />
<path d="M12744 5694
L18694 5694
" />
<path d="M12519 5919
L12744 5694
" />
<path d="M20844 15669
L21044 15669
" />
<path d="M21844 14869
L21844 12410
" />
<path d="M21044 15669
L21844 14869
" />
<path d="M22694 12410
L21844 12410
" />
<path d="M21844 12410
L20994 12410
" />
<path d="M22694 12410
L24353 12410
" />
<path d="M24353 12410
L25119 11644
" />
</g>
<g style="fill:#000000; fill-opacity:1.0; 
stroke:#000000; stroke-width:200; stroke-opacity:1; 
stroke-linecap:round; stroke-linejoin:round;">
<path d="M20844 15669
L20844 15969
" />
<path d="M19944 16644
L10294 16644
" />
<path d="M20169 16644
L19944 16644
" />
<path d="M20844 15969
L20169 16644
" />
<path d="M25119 11644
L25119 6269
" />
<path d="M25119 6269
L25294 6094
" />
<path d="M10294 16644
L9644 15994
" />
<path d="M6044 16669
L5969 16594
" />
<path d="M6569 16669
L6044 16669
" />
<path d="M7244 15994
L6569 16669
" />
<path d="M9644 15994
L7244 15994
" />
<path d="M25794 6094
L25294 6094
" />
<path d="M25294 6094
L24394 6094
" />
<path d="M24394 6094
L24135 5835
" />
<path d="M24135 5835
L22194 5835
" />
<path d="M8169 11244
L8519 11244
" />
<path d="M9569 10194
L9919 10194
" />
<path d="M8519 11244
L9569 10194
" />
<path d="M18694 5694
L18835 5835
" />
<path d="M18835 5835
L20069 5835
" />
<path d="M20069 5835
L22194 5835
" />
<path d="M18544 4144
L18544 4094
" />
<path d="M22028 5669
L22194 5835
" />
<path d="M18544 4144
L18544 4069
" />
<path d="M25119 11644
L25844 11644
" />
</g>
<g style="fill:#000000; fill-opacity:1.0; 
stroke:#000000; stroke-width:100; stroke-opacity:1; 
stroke-linecap:round; stroke-linejoin:round;">
<path d="M15019 869
L4769 869
" />
<path d="M3819 1819
L3819 3894
" />
<path d="M4769 869
L3819 1819
" />
<path d="M15019 869
L14594 869
" />
<path d="M12264 3199
L12264 4069
" />
<path d="M14594 869
L12264 3199
" />
<path d="M16294 10419
L16294 15669
" />
<path d="M13944 10169
L16044 10169
" />
<path d="M16044 10169
L16294 10419
" />
<path d="M14944 8219
L14944 9169
" />
<path d="M14944 4069
L14969 4094
" />
<path d="M13289 4069
L14944 4069
" />
<path d="M11769 10144
L11769 10119
" />
<path d="M14944 9169
L13944 10169
" />
<path d="M13034 4069
L13289 4069
" />
<path d="M13289 4069
L15014 2344
" />
<path d="M15014 2344
L15019 2344
" />
<path d="M15019 869
L16444 869
" />
<path d="M16444 2294
L16419 2294
" />
</g>
<g style="fill:#000000; fill-opacity:1.0; 
stroke:#000000; stroke-width:196.85; stroke-opacity:1; 
stroke-linecap:round; stroke-linejoin:round;">
<path d="M16394 4144
L16719 4144
" />
<path d="M16719 4144
L17944 2919
" />
<path d="M17944 2919
L17944 1944
" />
<path d="M17944 1944
L17669 1669
" />
</g>
<g style="fill:#000000; fill-opacity:1.0; 
stroke:#000000; stroke-width:100; stroke-opacity:1; 
stroke-linecap:round; stroke-linejoin:round;">
<path d="M20994 13178
L20994 12922
" />
<path d="M20994 13178
L20135 13178
" />
<path d="M18569 14744
L18569 15719
" />
<path d="M20135 13178
L18569 14744
" />
</g>
<g style="fill:#000000; fill-opacity:1.0; 
stroke:#000000; stroke-width:196.85; stroke-opacity:1; 
stroke-linecap:round; stroke-linejoin:round;">
<path d="M18544 18694
L18544 17669
" />
<path d="M18619 15669
L20094 15669
" />
<path d="M18569 15719
L18619 15669
" />
<path d="M18544 17669
L18569 17644
" />
</g>
<g style="fill:#000000; fill-opacity:1.0; 
stroke:#000000; stroke-width:100; stroke-opacity:1; 
stroke-linecap:round; stroke-linejoin:round;">
<path d="M12519 4044
L12519 3619
" />
<path d="M14469 1669
L15219 1669
" />
<path d="M12519 3619
L14469 1669
" />
</g>
<g style="fill:#000000; fill-opacity:1.0; 
stroke:#000000; stroke-width:200; stroke-opacity:1; 
stroke-linecap:round; stroke-linejoin:round;">
<path d="M25794 5094
L26544 5094
" />
<path d="M26544 5094
L26619 5169
" />
<path d="M26619 4269
L26619 4144
" />
<path d="M26619 9194
L26619 5169
" />
<path d="M26619 5169
L26619 4269
" />
<path d="M26619 10744
L26619 9194
" />
<path d="M26203 3728
L22144 3728
" />
<path d="M26619 4144
L26203 3728
" />
<path d="M8094 16619
L8094 18694
" />
<path d="M4144 13494
L4144 14319
" />
<path d="M4144 14319
L4294 14469
" />
<path d="M5669 12244
L5669 13319
" />
<path d="M3119 16594
L3944 16594
" />
<path d="M2469 15944
L3119 16594
" />
<path d="M2469 15144
L2469 15944
" />
<path d="M3144 14469
L2469 15144
" />
<path d="M4519 14469
L4294 14469
" />
<path d="M4294 14469
L3144 14469
" />
<path d="M5669 13319
L4519 14469
" />
<path d="M26619 10744
L26619 16044
" />
<path d="M23969 18694
L18794 18694
" />
<path d="M26619 16044
L23969 18694
" />
<path d="M18794 18694
L18544 18694
" />
<path d="M18544 18694
L18269 18694
" />
<path d="M18269 18694
L8094 18694
" />
<path d="M3944 17069
L3944 16594
" />
<path d="M5569 18694
L3944 17069
" />
<path d="M8094 18694
L5569 18694
" />
<path d="M25844 10644
L26519 10644
" />
<path d="M26519 10644
L26619 10744
" />
<path d="M22144 3728
L21128 3728
" />
<path d="M21128 3728
L19069 1669
" />
<path d="M19069 1669
L17669 1669
" />
<path d="M17669 1669
L17444 1669
" />
<path d="M17444 1669
L15219 1669
" />
<path d="M15219 1669
L15194 1669
" />
</g>
<g style="fill:#000000; fill-opacity:1.0; 
stroke:#000000; stroke-width:100; stroke-opacity:1; 
stroke-linecap:round; stroke-linejoin:round;">
<path d="M13034 6269
L13034 6809
" />
<path d="M13369 7144
L16244 7144
" />
<path d="M13034 6809
L13369 7144
" />
</g>
<g style="fill:#000000; fill-opacity:1.0; 
stroke:#000000; stroke-width:200; stroke-opacity:1; 
stroke-linecap:round; stroke-linejoin:round;">
<path d="M16244 7144
L16244 8394
" />
<path d="M16244 8394
L16269 8419
" />
</g>
<g style="fill:#000000; fill-opacity:1.0; 
stroke:#000000; stroke-width:100; stroke-opacity:1; 
stroke-linecap:round; stroke-linejoin:round;">
<path d="M12779 6244
L12779 11684
" />
<path d="M12779 11684
L12719 11744
" />
</g>
<g style="fill:#000000; fill-opacity:1.0; 
stroke:#000000; stroke-width:200; stroke-opacity:1; 
stroke-linecap:round; stroke-linejoin:round;">
<path d="M12719 11744
L12719 13494
" />
<path d="M7719 8419
L7719 7144
" />
<path d="M7719 7144
L7694 7119
" />
<path d="M7719 8419
L9344 8419
" />
<path d="M8169 11744
L11969 11744
" />
</g>
<g style="fill:#000000; fill-opacity:1.0; 
stroke:#000000; stroke-width:196.85; stroke-opacity:1; 
stroke-linecap:round; stroke-linejoin:round;">
<path d="M5669 10744
L6719 10744
" />
<path d="M7719 9744
L7719 9169
" />
<path d="M6719 10744
L7719 9744
" />
</g>
<g style="fill:#000000; fill-opacity:1.0; 
stroke:#000000; stroke-width:200; stroke-opacity:1; 
stroke-linecap:round; stroke-linejoin:round;">
<path d="M8169 10744
L8169 10344
" />
<path d="M8169 10344
L9344 9169
" />
</g>
<g style="fill:#000000; fill-opacity:1.0; 
stroke:#000000; stroke-width:100; stroke-opacity:1; 
stroke-linecap:round; stroke-linejoin:round;">
<path d="M22694 12666
L25822 12666
" />
<path d="M25822 12666
L25844 12644
" />
<path d="M22694 12922
L24022 12922
" />
<path d="M24744 13644
L25844 13644
" />
<path d="M24022 12922
L24744 13644
" />
<path d="M11994 2169
L11994 4029
" />
<path d="M11994 4029
L12009 4044
" />
</g>
<g style="fill:#000000; fill-opacity:1.0; 
stroke:#000000; stroke-width:130; stroke-opacity:1; 
stroke-linecap:round; stroke-linejoin:round;">
<path d="M9669 3994
L10244 3994
" />
<path d="M12009 4529
L12009 4044
" />
<path d="M11794 4744
L12009 4529
" />
<path d="M10994 4744
L11794 4744
" />
<path d="M10244 3994
L10994 4744
" />
</g>
<g style="fill:#000000; fill-opacity:1.0; 
stroke:#000000; stroke-width:200; stroke-opacity:1; 
stroke-linecap:round; stroke-linejoin:round;">
<path d="M5669 11744
L6194 11744
" />
<path d="M6444 14819
L5969 15294
" />
<path d="M6444 11994
L6444 14819
" />
<path d="M6194 11744
L6444 11994
" />
<path d="M5969 15294
L3944 15294
" />
<path d="M1694 12544
L2994 12544
" />
<path d="M2994 12544
L3269 12544
" />
<path d="M3269 12544
L3469 12544
" />
<path d="M4269 11744
L5669 11744
" />
<path d="M3469 12544
L4269 11744
" />
</g>
<g style="fill:#000000; fill-opacity:1.0; 
stroke:#000000; stroke-width:100; stroke-opacity:1; 
stroke-linecap:round; stroke-linejoin:round;">
<path d="M12009 6244
L11759 6244
" />
<path d="M11759 6244
L10259 4744
" />
<path d="M10259 4744
L9669 4744
" />
</g>
<g style="fill:#000000; fill-opacity:1.0; 
stroke:#000000; stroke-width:200; stroke-opacity:1; 
stroke-linecap:round; stroke-linejoin:round;">
<path d="M1694 7544
L1694 5869
" />
<path d="M2819 4744
L9669 4744
" />
<path d="M1694 5869
L2819 4744
" />
<path d="M1694 9544
L744 9544
" />
<path d="M1694 11544
L744 11544
" />
<path d="M1694 7544
L819 7544
" />
<path d="M769 13544
L1694 13544
" />
<path d="M744 13569
L769 13544
" />
<path d="M744 7619
L744 9544
" />
<path d="M744 9544
L744 11544
" />
<path d="M744 11544
L744 13569
" />
<path d="M819 7544
L744 7619
" />
</g>
<g style="fill:#000000; fill-opacity:1.0; 
stroke:#000000; stroke-width:100; stroke-opacity:1; 
stroke-linecap:round; stroke-linejoin:round;">
<path d="M22694 13178
L23328 13178
" />
<path d="M24794 14644
L25844 14644
" />
<path d="M23328 13178
L24794 14644
" />
</g>
<g style="fill:#000000; fill-opacity:1.0; 
stroke:#000000; stroke-width:200; stroke-opacity:1; 
stroke-linecap:round; stroke-linejoin:round;">
<path d="M8094 15319
L10269 15319
" />
<path d="M10269 15319
L10294 15344
" />
<path d="M7419 14919
L7819 15319
" />
<path d="M7419 11544
L7419 14919
" />
<path d="M5669 11244
L7119 11244
" />
<path d="M7819 15319
L8044 15319
" />
<path d="M7119 11244
L7419 11544
" />
<path d="M5669 11244
L4294 11244
" />
<path d="M4294 11244
L3632 10582
" />
<path d="M3632 10582
L3594 10544
" />
<path d="M3594 10544
L1694 10544
" />
</g>
<g style="fill:#000000; fill-opacity:1.0; 
stroke:#000000; stroke-width:100; stroke-opacity:1; 
stroke-linecap:round; stroke-linejoin:round;">
<path d="M11244 2169
L7969 2169
" />
<path d="M7969 2169
L7944 2144
" />
<path d="M11244 2169
L11244 3534
" />
<path d="M11244 3534
L11754 4044
" />
</g>
<g style="fill:#000000; fill-opacity:1.0; 
stroke:#000000; stroke-width:200; stroke-opacity:1; 
stroke-linecap:round; stroke-linejoin:round;">
<path d="M5844 2119
L7919 2119
" />
<path d="M7919 2119
L7944 2144
" />
</g>
<g style="fill:#000000; fill-opacity:1.0; 
stroke:#000000; stroke-width:196.85; stroke-opacity:1; 
stroke-linecap:round; stroke-linejoin:round;">
<path d="M5844 2869
L5844 3869
" />
<path d="M3094 8544
L1694 8544
" />
<path d="M5794 5844
L3094 8544
" />
<path d="M5844 3869
L5819 3894
" />
</g>
<g style="fill:#000000; fill-opacity:1.0; 
stroke:#000000; stroke-width:200; stroke-opacity:1; 
stroke-linecap:round; stroke-linejoin:round;">
<path d="M7944 2894
L5869 2894
" />
<path d="M5869 2894
L5844 2869
" />
</g>
<g style="fill:#000000; fill-opacity:1.0; 
stroke:#000000; stroke-width:196.85; stroke-opacity:1; 
stroke-linecap:round; stroke-linejoin:round;">
<path d="M5669 8469
L5669 7594
" />
<path d="M6894 6369
L7694 6369
" />
<path d="M5669 7594
L6894 6369
" />
</g>
<g style="fill:#000000; fill-opacity:1.0; 
stroke:#000000; stroke-width:100; stroke-opacity:1; 
stroke-linecap:round; stroke-linejoin:round;">
<path d="M7694 6369
L9094 6369
" />
<path d="M12269 6644
L12269 6244
" />
<path d="M11169 7744
L12269 6644
" />
<path d="M10469 7744
L11169 7744
" />
<path d="M9094 6369
L10469 7744
" />
<path d="M17894 8394
L17894 11319
" />
<path d="M19241 12666
L20994 12666
" />
<path d="M17894 11319
L19241 12666
" />
</g>
<g style="fill:#000000; fill-opacity:1.0; 
stroke:#000000; stroke-width:200; stroke-opacity:1; 
stroke-linecap:round; stroke-linejoin:round;">
<path d="M19069 8394
L17894 8394
" />
<path d="M17894 7144
L17894 8394
" />
</g>
<g style="fill:#000000; fill-opacity:1.0; 
stroke:#000000; stroke-width:100; stroke-opacity:1; 
stroke-linecap:round; stroke-linejoin:round;">
<path d="M13289 6269
L16119 6269
" />
<path d="M16119 6269
L16244 6394
" />
</g>
<g style="fill:#000000; fill-opacity:1.0; 
stroke:#000000; stroke-width:200; stroke-opacity:1; 
stroke-linecap:round; stroke-linejoin:round;">
<path d="M16244 6394
L17894 6394
" />
</g>
<g style="fill:#000000; fill-opacity:1.0; 
stroke:#000000; stroke-width:100; stroke-opacity:1; 
stroke-linecap:round; stroke-linejoin:round;">
<path d="M16394 4894
L18544 4894
" />
<path d="M16394 4894
L13169 4894
" />
<path d="M12779 4504
L12779 4069
" />
<path d="M13169 4894
L12779 4504
" />
</g>
<g style="fill:#000000; fill-opacity:1.0; 
stroke:#000000; stroke-width:39.3701; stroke-opacity:1; 
stroke-linecap:round; stroke-linejoin:round;">
<polyline style="fill-rule:evenodd;"
points="11563,6820
11014,7369
10624,7369
9359,6104
9238,6023
9094,5994
8229,5994
8153,5919
8034,5869
7905,5869
7355,5869
7235,5919
7208,5946
6894,5946
6732,5978
6595,6070
6595,6070
5370,7295
5278,7432
5246,7594
5246,8004
5210,8019
5119,8110
5069,8229
5069,8359
5069,8709
5119,8828
5210,8919
5329,8969
5459,8969
6009,8969
6128,8920
6219,8828
6269,8709
6269,8580
6269,8230
6220,8110
6128,8019
6092,8004
6092,7769
7069,6792
7131,6792
7094,6879
7094,7009
7094,7359
7144,7478
7235,7569
7294,7594
7294,7955
7260,7969
7169,8060
7119,8179
7119,8309
7119,8659
7169,8778
7185,8794
7169,8810
7119,8929
7119,9059
7119,9409
7169,9528
7253,9612
6544,10321
5993,10321
5993,9404
5993,9034
5986,9016
5972,9002
5954,8995
5934,8995
5819,8995
5807,9007
5807,9132
5981,9132
5993,9119
5993,9034
5993,9404
5993,9319
5981,9307
5807,9307
5807,9431
5819,9443
5934,9443
5954,9443
5972,9436
5986,9422
5993,9404
5993,10321
5963,10321
5959,10319
5830,10319
5532,10319
5532,9431
5532,9307
5532,9132
5532,9007
5519,8995
5404,8995
5384,8995
5366,9002
5352,9016
5345,9034
5345,9119
5357,9132
5532,9132
5532,9307
5357,9307
5345,9319
5345,9404
5352,9422
5366,9436
5384,9443
5404,9443
5519,9443
5532,9431
5532,10319
5380,10319
5260,10369
5169,10460
5119,10579
5119,10709
5119,10819
4470,10819
3932,10281
3932,10281
3932,10281
3895,10244
3757,10152
3594,10119
2118,10119
2042,10044
2202,9884
2294,9664
2294,9425
2203,9205
2042,9044
2119,8967
3094,8967
3256,8935
3256,8935
3393,8843
5871,6366
5897,6366
6089,6287
6236,6140
6316,5948
6316,5741
6237,5549
6090,5402
5898,5323
5691,5322
5499,5402
5352,5548
5273,5740
5273,5767
2919,8121
2119,8121
2042,8044
2202,7884
2294,7664
2294,7425
2203,7205
2119,7121
2119,6045
2995,5169
9185,5169
9210,5194
9329,5244
9459,5244
10009,5244
10128,5195
10154,5169
11375,6390
11375,6590
11425,6709
11516,6800
11563,6820
" /> 
</g>
<g style="fill:#000000; fill-opacity:0.0; 
stroke:#000000; stroke-width:98.4252; stroke-opacity:1; 
stroke-linecap:round; stroke-linejoin:round;">
<polyline fill="none;"
points="11563,6820
11014,7369
10624,7369
9359,6104
9238,6023
9094,5994
8229,5994
8153,5919
8034,5869
7905,5869
7355,5869
7235,5919
7208,5946
6894,5946
6732,5978
6595,6070
6595,6070
5370,7295
5278,7432
5246,7594
5246,8004
5210,8019
5119,8110
5069,8229
5069,8359
5069,8709
5119,8828
5210,8919
5329,8969
5459,8969
6009,8969
6128,8920
6219,8828
6269,8709
6269,8580
6269,8230
6220,8110
6128,8019
6092,8004
6092,7769
7069,6792
7131,6792
7094,6879
7094,7009
7094,7359
7144,7478
7235,7569
7294,7594
7294,7955
7260,7969
7169,8060
7119,8179
7119,8309
7119,8659
7169,8778
7185,8794
7169,8810
7119,8929
7119,9059
7119,9409
7169,9528
7253,9612
6544,10321
5993,10321
5993,9404
5993,9034
5986,9016
5972,9002
5954,8995
5934,8995
5819,8995
5807,9007
5807,9132
5981,9132
5993,9119
5993,9034
5993,9404
5993,9319
5981,9307
5807,9307
5807,9431
5819,9443
5934,9443
5954,9443
5972,9436
5986,9422
5993,9404
5993,10321
5963,10321
5959,10319
5830,10319
5532,10319
5532,9431
5532,9307
5532,9132
5532,9007
5519,8995
5404,8995
5384,8995
5366,9002
5352,9016
5345,9034
5345,9119
5357,9132
5532,9132
5532,9307
5357,9307
5345,9319
5345,9404
5352,9422
5366,9436
5384,9443
5404,9443
5519,9443
5532,9431
5532,10319
5380,10319
5260,10369
5169,10460
5119,10579
5119,10709
5119,10819
4470,10819
3932,10281
3932,10281
3932,10281
3895,10244
3757,10152
3594,10119
2118,10119
2042,10044
2202,9884
2294,9664
2294,9425
2203,9205
2042,9044
2119,8967
3094,8967
3256,8935
3256,8935
3393,8843
5871,6366
5897,6366
6089,6287
6236,6140
6316,5948
6316,5741
6237,5549
6090,5402
5898,5323
5691,5322
5499,5402
5352,5548
5273,5740
5273,5767
2919,8121
2119,8121
2042,8044
2202,7884
2294,7664
2294,7425
2203,7205
2119,7121
2119,6045
2995,5169
9185,5169
9210,5194
9329,5244
9459,5244
10009,5244
10128,5195
10154,5169
11375,6390
11375,6590
11425,6709
11516,6800
11563,6820
" /> 
</g>
<g style="fill:#000000; fill-opacity:1.0; 
stroke:#000000; stroke-width:39.3701; stroke-opacity:1; 
stroke-linecap:round; stroke-linejoin:round;">
<polyline style="fill-rule:evenodd;"
points="12404,11176
12360,11194
12344,11210
12328,11194
12209,11144
12080,11144
11730,11144
11610,11194
11519,11285
11505,11319
10243,11319
10243,11129
10243,10759
10236,10741
10222,10727
10204,10720
10184,10720
10069,10720
10057,10732
10057,10857
10231,10857
10243,10844
10243,10759
10243,11129
10243,11044
10231,11032
10057,11032
10057,11156
10069,11168
10184,11168
10204,11168
10222,11161
10236,11147
10243,11129
10243,11319
9782,11319
9782,11156
9782,11032
9607,11032
9595,11044
9595,11129
9602,11147
9616,11161
9634,11168
9654,11168
9769,11168
9782,11156
9782,11319
9045,11319
9595,10769
9595,10844
9607,10857
9782,10857
9782,10732
9769,10720
9654,10720
9644,10720
9670,10694
9709,10694
10259,10694
10378,10645
10469,10553
10519,10434
10519,10305
10519,10124
12404,8239
12404,11176
" /> 
</g>
<g style="fill:#000000; fill-opacity:0.0; 
stroke:#000000; stroke-width:98.4252; stroke-opacity:1; 
stroke-linecap:round; stroke-linejoin:round;">
<polyline fill="none;"
points="12404,11176
12360,11194
12344,11210
12328,11194
12209,11144
12080,11144
11730,11144
11610,11194
11519,11285
11505,11319
10243,11319
10243,11129
10243,10759
10236,10741
10222,10727
10204,10720
10184,10720
10069,10720
10057,10732
10057,10857
10231,10857
10243,10844
10243,10759
10243,11129
10243,11044
10231,11032
10057,11032
10057,11156
10069,11168
10184,11168
10204,11168
10222,11161
10236,11147
10243,11129
10243,11319
9782,11319
9782,11156
9782,11032
9607,11032
9595,11044
9595,11129
9602,11147
9616,11161
9634,11168
9654,11168
9769,11168
9782,11156
9782,11319
9045,11319
9595,10769
9595,10844
9607,10857
9782,10857
9782,10732
9769,10720
9654,10720
9644,10720
9670,10694
9709,10694
10259,10694
10378,10645
10469,10553
10519,10434
10519,10305
10519,10124
12404,8239
12404,11176
" /> 
</g>
<g style="fill:#000000; fill-opacity:1.0; 
stroke:#000000; stroke-width:39.3701; stroke-opacity:1; 
stroke-linecap:round; stroke-linejoin:round;">
<polyline style="fill-rule:evenodd;"
points="17521,2433
17494,2460
17444,2579
17444,2709
17444,2821
16620,3644
16605,3644
16055,3644
15935,3694
15844,3785
15794,3904
15794,4034
15794,4384
15844,4503
15860,4519
15860,4519
13397,4519
13324,4519
13260,4455
13179,4374
13215,4374
13220,4374
13220,4374
13247,4374
13260,4374
13331,4374
13358,4374
13358,4374
13397,4374
13985,4374
13985,4325
13397,4325
13397,4325
13397,4315
13397,4209
13385,4197
13319,4197
13319,4325
13260,4325
13260,4197
13193,4197
13181,4209
13181,4315
13181,4325
13163,4325
13163,4261
13163,3813
13181,3813
13181,3823
13181,3929
13193,3941
13260,3941
13260,3813
13319,3813
13319,3941
13385,3941
13397,3929
13397,3823
13397,3813
13985,3813
13985,3764
13358,3764
13358,3764
13331,3764
13247,3764
13220,3764
13220,3764
13215,3764
13163,3764
13163,3749
13142,3699
13142,3526
14624,2044
15005,2044
15032,2062
15194,2094
15219,2094
17444,2094
17495,2094
17521,2119
17521,2433
" /> 
</g>
<g style="fill:#000000; fill-opacity:0.0; 
stroke:#000000; stroke-width:98.4252; stroke-opacity:1; 
stroke-linecap:round; stroke-linejoin:round;">
<polyline fill="none;"
points="17521,2433
17494,2460
17444,2579
17444,2709
17444,2821
16620,3644
16605,3644
16055,3644
15935,3694
15844,3785
15794,3904
15794,4034
15794,4384
15844,4503
15860,4519
15860,4519
13397,4519
13324,4519
13260,4455
13179,4374
13215,4374
13220,4374
13220,4374
13247,4374
13260,4374
13331,4374
13358,4374
13358,4374
13397,4374
13985,4374
13985,4325
13397,4325
13397,4325
13397,4315
13397,4209
13385,4197
13319,4197
13319,4325
13260,4325
13260,4197
13193,4197
13181,4209
13181,4315
13181,4325
13163,4325
13163,4261
13163,3813
13181,3813
13181,3823
13181,3929
13193,3941
13260,3941
13260,3813
13319,3813
13319,3941
13385,3941
13397,3929
13397,3823
13397,3813
13985,3813
13985,3764
13358,3764
13358,3764
13331,3764
13247,3764
13220,3764
13220,3764
13215,3764
13163,3764
13163,3749
13142,3699
13142,3526
14624,2044
15005,2044
15032,2062
15194,2094
15219,2094
17444,2094
17495,2094
17521,2119
17521,2433
" /> 
</g>
<g style="fill:#000000; fill-opacity:1.0; 
stroke:#000000; stroke-width:39.3701; stroke-opacity:1; 
stroke-linecap:round; stroke-linejoin:round;">
<polyline style="fill-rule:evenodd;"
points="19742,13041
18304,14479
18223,14601
18194,14744
18194,15356
18127,15423
18048,15615
18047,15822
18127,16014
18273,16161
18414,16219
16593,16219
16593,9354
16593,8984
16586,8966
16572,8952
16554,8945
16534,8945
16419,8945
16407,8957
16407,9082
16581,9082
16593,9069
16593,8984
16593,9354
16593,9269
16581,9257
16407,9257
16407,9381
16419,9393
16534,9393
16554,9393
16572,9386
16586,9372
16593,9354
16593,16219
16132,16219
16132,9381
16132,9257
16132,9082
16132,8957
16119,8945
16004,8945
15984,8945
15966,8952
15952,8966
15945,8984
15945,9069
15957,9082
16132,9082
16132,9257
15957,9257
15945,9269
15945,9354
15952,9372
15966,9386
15984,9393
16004,9393
16119,9393
16132,9381
16132,16219
12193,16219
12193,13759
12193,13229
12193,13209
12186,13191
12172,13177
12154,13170
12069,13170
12057,13182
12057,13357
12181,13357
12193,13344
12193,13229
12193,13759
12193,13644
12181,13632
12057,13632
12057,13806
12069,13818
12154,13818
12172,13811
12186,13797
12193,13779
12193,13759
12193,16219
11882,16219
11882,13806
11882,13632
11882,13357
11882,13182
11869,13170
11784,13170
11766,13177
11752,13191
11745,13209
11745,13229
11745,13344
11757,13357
11882,13357
11882,13632
11757,13632
11745,13644
11745,13759
11745,13779
11752,13797
11766,13811
11784,13818
11869,13818
11882,13806
11882,16219
10994,16219
10970,16160
10878,16069
10759,16019
10630,16019
10270,16019
10220,15969
10759,15969
10878,15920
10969,15828
11019,15709
11019,15580
11019,14980
10970,14860
10878,14769
10759,14719
10630,14719
9830,14719
9710,14769
9619,14860
9605,14894
8794,14894
8770,14835
8678,14744
8559,14694
8443,14694
8443,12354
8443,12306
8431,12294
8282,12294
8282,12381
8294,12393
8384,12393
8404,12393
8422,12386
8436,12372
8443,12354
8443,14694
8430,14694
8057,14694
8057,12381
8057,12294
7907,12294
7895,12306
7895,12354
7902,12372
7916,12386
7934,12393
7954,12393
8044,12393
8057,12381
8057,14694
7844,14694
7844,12154
7879,12169
7895,12169
7895,12182
7907,12194
8057,12194
8057,12169
8282,12169
8282,12194
8431,12194
8443,12182
8443,12169
8459,12169
8459,12169
11505,12169
11519,12203
11610,12294
11729,12344
11859,12344
12209,12344
12294,12309
12294,13010
12269,13035
12219,13154
12219,13284
12219,13834
12269,13953
12360,14044
12479,14094
12609,14094
12959,14094
13078,14045
13169,13953
13219,13834
13219,13705
13219,13155
13170,13035
13144,13010
13144,12229
13169,12203
13219,12084
13219,11955
13219,11405
13170,11285
13154,11270
13154,7443
13226,7490
13226,7490
13369,7519
15710,7519
15785,7594
15819,7609
15819,7965
15810,7969
15719,8060
15669,8179
15669,8309
15669,8659
15719,8778
15810,8869
15929,8919
16059,8919
16609,8919
16728,8870
16819,8778
16869,8659
16869,8530
16869,8180
16820,8060
16728,7969
16669,7944
16669,7609
16703,7595
16794,7503
16844,7384
16844,7255
16844,6905
16809,6819
17330,6819
17294,6904
17294,7034
17294,7384
17344,7503
17435,7594
17469,7609
17469,8394
17502,8557
17519,8583
17519,11319
17548,11463
17629,11584
18976,12931
18976,12931
19098,13012
19241,13041
19241,13041
19241,13041
19742,13041
" /> 
</g>
<g style="fill:#000000; fill-opacity:0.0; 
stroke:#000000; stroke-width:98.4252; stroke-opacity:1; 
stroke-linecap:round; stroke-linejoin:round;">
<polyline fill="none;"
points="19742,13041
18304,14479
18223,14601
18194,14744
18194,15356
18127,15423
18048,15615
18047,15822
18127,16014
18273,16161
18414,16219
16593,16219
16593,9354
16593,8984
16586,8966
16572,8952
16554,8945
16534,8945
16419,8945
16407,8957
16407,9082
16581,9082
16593,9069
16593,8984
16593,9354
16593,9269
16581,9257
16407,9257
16407,9381
16419,9393
16534,9393
16554,9393
16572,9386
16586,9372
16593,9354
16593,16219
16132,16219
16132,9381
16132,9257
16132,9082
16132,8957
16119,8945
16004,8945
15984,8945
15966,8952
15952,8966
15945,8984
15945,9069
15957,9082
16132,9082
16132,9257
15957,9257
15945,9269
15945,9354
15952,9372
15966,9386
15984,9393
16004,9393
16119,9393
16132,9381
16132,16219
12193,16219
12193,13759
12193,13229
12193,13209
12186,13191
12172,13177
12154,13170
12069,13170
12057,13182
12057,13357
12181,13357
12193,13344
12193,13229
12193,13759
12193,13644
12181,13632
12057,13632
12057,13806
12069,13818
12154,13818
12172,13811
12186,13797
12193,13779
12193,13759
12193,16219
11882,16219
11882,13806
11882,13632
11882,13357
11882,13182
11869,13170
11784,13170
11766,13177
11752,13191
11745,13209
11745,13229
11745,13344
11757,13357
11882,13357
11882,13632
11757,13632
11745,13644
11745,13759
11745,13779
11752,13797
11766,13811
11784,13818
11869,13818
11882,13806
11882,16219
10994,16219
10970,16160
10878,16069
10759,16019
10630,16019
10270,16019
10220,15969
10759,15969
10878,15920
10969,15828
11019,15709
11019,15580
11019,14980
10970,14860
10878,14769
10759,14719
10630,14719
9830,14719
9710,14769
9619,14860
9605,14894
8794,14894
8770,14835
8678,14744
8559,14694
8443,14694
8443,12354
8443,12306
8431,12294
8282,12294
8282,12381
8294,12393
8384,12393
8404,12393
8422,12386
8436,12372
8443,12354
8443,14694
8430,14694
8057,14694
8057,12381
8057,12294
7907,12294
7895,12306
7895,12354
7902,12372
7916,12386
7934,12393
7954,12393
8044,12393
8057,12381
8057,14694
7844,14694
7844,12154
7879,12169
7895,12169
7895,12182
7907,12194
8057,12194
8057,12169
8282,12169
8282,12194
8431,12194
8443,12182
8443,12169
8459,12169
8459,12169
11505,12169
11519,12203
11610,12294
11729,12344
11859,12344
12209,12344
12294,12309
12294,13010
12269,13035
12219,13154
12219,13284
12219,13834
12269,13953
12360,14044
12479,14094
12609,14094
12959,14094
13078,14045
13169,13953
13219,13834
13219,13705
13219,13155
13170,13035
13144,13010
13144,12229
13169,12203
13219,12084
13219,11955
13219,11405
13170,11285
13154,11270
13154,7443
13226,7490
13226,7490
13369,7519
15710,7519
15785,7594
15819,7609
15819,7965
15810,7969
15719,8060
15669,8179
15669,8309
15669,8659
15719,8778
15810,8869
15929,8919
16059,8919
16609,8919
16728,8870
16819,8778
16869,8659
16869,8530
16869,8180
16820,8060
16728,7969
16669,7944
16669,7609
16703,7595
16794,7503
16844,7384
16844,7255
16844,6905
16809,6819
17330,6819
17294,6904
17294,7034
17294,7384
17344,7503
17435,7594
17469,7609
17469,8394
17502,8557
17519,8583
17519,11319
17548,11463
17629,11584
18976,12931
18976,12931
19098,13012
19241,13041
19241,13041
19241,13041
19742,13041
" /> 
</g>
<g style="fill:#000000; fill-opacity:1.0; 
stroke:#000000; stroke-width:39.3701; stroke-opacity:1; 
stroke-linecap:round; stroke-linejoin:round;">
<polyline style="fill-rule:evenodd;"
points="24694,11539
24198,12035
23069,12035
23009,12010
22880,12010
22558,12010
22558,7775
22558,6731
22551,6713
22537,6699
22519,6692
22499,6692
22364,6692
22352,6704
22352,6997
22546,6997
22558,6985
22558,6731
22558,7775
22558,7521
22546,7509
22352,7509
22352,7802
22364,7814
22499,7814
22519,7814
22537,7807
22551,7793
22558,7775
22558,12010
22380,12010
22319,12035
22037,12035
22037,7802
22037,7509
22037,6997
22037,6704
22024,6692
21889,6692
21869,6692
21851,6699
21837,6713
21830,6731
21830,6985
21842,6997
22037,6997
22037,7509
21842,7509
21830,7521
21830,7775
21837,7793
21851,7807
21869,7814
21889,7814
22024,7814
22037,7802
22037,12035
21844,12035
21369,12035
21309,12010
21180,12010
20680,12010
20560,12060
20469,12151
20419,12270
20419,12291
19396,12291
19393,12288
19393,9329
19393,8959
19386,8941
19372,8927
19354,8920
19334,8920
19219,8920
19207,8932
19207,9057
19381,9057
19393,9044
19393,8959
19393,9329
19393,9244
19381,9232
19207,9232
19207,9356
19219,9368
19334,9368
19354,9368
19372,9361
19386,9347
19393,9329
19393,12288
18932,11827
18932,9356
18932,9232
18932,9057
18932,8932
18919,8920
18804,8920
18784,8920
18766,8927
18752,8941
18745,8959
18745,9044
18757,9057
18932,9057
18932,9232
18757,9232
18745,9244
18745,9329
18752,9347
18766,9361
18784,9368
18804,9368
18919,9368
18932,9356
18932,11827
18269,11164
18269,8819
18585,8819
18610,8844
18729,8894
18859,8894
19409,8894
19528,8845
19619,8753
19669,8634
19669,8505
19669,8155
19620,8035
19528,7944
19409,7894
19280,7894
18730,7894
18610,7944
18585,7969
18319,7969
18319,7609
18353,7595
18444,7503
18494,7384
18494,7255
18494,6905
18445,6785
18429,6769
18444,6753
18494,6634
18494,6505
18494,6155
18459,6069
18468,6069
18535,6136
18535,6136
18627,6197
18673,6228
18673,6228
18835,6260
20069,6260
21554,6260
21554,6412
21604,6531
21695,6622
21814,6672
21944,6672
22574,6672
22693,6623
22784,6531
22834,6412
22834,6283
22834,6260
23959,6260
24094,6395
24094,6395
24186,6456
24232,6487
24232,6487
24394,6519
24694,6519
24694,11539
" /> 
</g>
<g style="fill:#000000; fill-opacity:0.0; 
stroke:#000000; stroke-width:98.4252; stroke-opacity:1; 
stroke-linecap:round; stroke-linejoin:round;">
<polyline fill="none;"
points="24694,11539
24198,12035
23069,12035
23009,12010
22880,12010
22558,12010
22558,7775
22558,6731
22551,6713
22537,6699
22519,6692
22499,6692
22364,6692
22352,6704
22352,6997
22546,6997
22558,6985
22558,6731
22558,7775
22558,7521
22546,7509
22352,7509
22352,7802
22364,7814
22499,7814
22519,7814
22537,7807
22551,7793
22558,7775
22558,12010
22380,12010
22319,12035
22037,12035
22037,7802
22037,7509
22037,6997
22037,6704
22024,6692
21889,6692
21869,6692
21851,6699
21837,6713
21830,6731
21830,6985
21842,6997
22037,6997
22037,7509
21842,7509
21830,7521
21830,7775
21837,7793
21851,7807
21869,7814
21889,7814
22024,7814
22037,7802
22037,12035
21844,12035
21369,12035
21309,12010
21180,12010
20680,12010
20560,12060
20469,12151
20419,12270
20419,12291
19396,12291
19393,12288
19393,9329
19393,8959
19386,8941
19372,8927
19354,8920
19334,8920
19219,8920
19207,8932
19207,9057
19381,9057
19393,9044
19393,8959
19393,9329
19393,9244
19381,9232
19207,9232
19207,9356
19219,9368
19334,9368
19354,9368
19372,9361
19386,9347
19393,9329
19393,12288
18932,11827
18932,9356
18932,9232
18932,9057
18932,8932
18919,8920
18804,8920
18784,8920
18766,8927
18752,8941
18745,8959
18745,9044
18757,9057
18932,9057
18932,9232
18757,9232
18745,9244
18745,9329
18752,9347
18766,9361
18784,9368
18804,9368
18919,9368
18932,9356
18932,11827
18269,11164
18269,8819
18585,8819
18610,8844
18729,8894
18859,8894
19409,8894
19528,8845
19619,8753
19669,8634
19669,8505
19669,8155
19620,8035
19528,7944
19409,7894
19280,7894
18730,7894
18610,7944
18585,7969
18319,7969
18319,7609
18353,7595
18444,7503
18494,7384
18494,7255
18494,6905
18445,6785
18429,6769
18444,6753
18494,6634
18494,6505
18494,6155
18459,6069
18468,6069
18535,6136
18535,6136
18627,6197
18673,6228
18673,6228
18835,6260
20069,6260
21554,6260
21554,6412
21604,6531
21695,6622
21814,6672
21944,6672
22574,6672
22693,6623
22784,6531
22834,6412
22834,6283
22834,6260
23959,6260
24094,6395
24094,6395
24186,6456
24232,6487
24232,6487
24394,6519
24694,6519
24694,11539
" /> 
</g>
<g style="fill:#000000; fill-opacity:1.0; 
stroke:#000000; stroke-width:39.3701; stroke-opacity:1; 
stroke-linecap:round; stroke-linejoin:round;">
<polyline style="fill-rule:evenodd;"
points="26194,15868
26168,15894
26168,15359
26161,15341
26147,15327
26129,15320
26109,15320
25994,15320
25982,15332
25982,15507
26156,15507
26168,15494
26168,15359
26168,15894
26168,15894
26168,15794
26156,15782
25982,15782
25982,15956
25994,15968
26094,15968
25707,16356
25707,15956
25707,15782
25707,15507
25707,15332
25694,15320
25579,15320
25559,15320
25541,15327
25527,15341
25520,15359
25520,15494
25532,15507
25707,15507
25707,15782
25532,15782
25520,15794
25520,15929
25527,15947
25541,15961
25559,15968
25579,15968
25694,15968
25707,15956
25707,16356
23793,18269
18967,18269
18967,17984
19011,17940
19091,17748
19091,17541
19012,17349
18865,17202
18673,17123
18466,17122
18274,17202
18127,17348
18048,17540
18047,17747
18121,17925
18121,18269
8519,18269
8519,17244
8559,17244
8678,17195
8769,17103
8819,16984
8819,16855
8819,16419
9468,16419
9569,16520
9569,17009
9619,17128
9710,17219
9829,17269
9959,17269
10759,17269
10878,17220
10969,17128
10994,17069
19944,17069
20169,17069
20332,17037
20332,17037
20470,16945
21145,16270
21168,16234
21203,16220
21294,16128
21344,16009
21344,15899
22109,15134
22109,15134
22109,15134
22190,15013
22219,14869
22219,14869
22219,14869
22219,13487
22260,13528
22379,13578
22509,13578
23009,13578
23069,13553
23173,13553
24529,14909
24651,14990
24651,14990
24794,15019
25371,15019
25504,15152
25724,15244
25963,15244
26184,15153
26194,15142
26194,15868
" /> 
</g>
<g style="fill:#000000; fill-opacity:0.0; 
stroke:#000000; stroke-width:98.4252; stroke-opacity:1; 
stroke-linecap:round; stroke-linejoin:round;">
<polyline fill="none;"
points="26194,15868
26168,15894
26168,15359
26161,15341
26147,15327
26129,15320
26109,15320
25994,15320
25982,15332
25982,15507
26156,15507
26168,15494
26168,15359
26168,15894
26168,15894
26168,15794
26156,15782
25982,15782
25982,15956
25994,15968
26094,15968
25707,16356
25707,15956
25707,15782
25707,15507
25707,15332
25694,15320
25579,15320
25559,15320
25541,15327
25527,15341
25520,15359
25520,15494
25532,15507
25707,15507
25707,15782
25532,15782
25520,15794
25520,15929
25527,15947
25541,15961
25559,15968
25579,15968
25694,15968
25707,15956
25707,16356
23793,18269
18967,18269
18967,17984
19011,17940
19091,17748
19091,17541
19012,17349
18865,17202
18673,17123
18466,17122
18274,17202
18127,17348
18048,17540
18047,17747
18121,17925
18121,18269
8519,18269
8519,17244
8559,17244
8678,17195
8769,17103
8819,16984
8819,16855
8819,16419
9468,16419
9569,16520
9569,17009
9619,17128
9710,17219
9829,17269
9959,17269
10759,17269
10878,17220
10969,17128
10994,17069
19944,17069
20169,17069
20332,17037
20332,17037
20470,16945
21145,16270
21168,16234
21203,16220
21294,16128
21344,16009
21344,15899
22109,15134
22109,15134
22109,15134
22190,15013
22219,14869
22219,14869
22219,14869
22219,13487
22260,13528
22379,13578
22509,13578
23009,13578
23069,13553
23173,13553
24529,14909
24651,14990
24651,14990
24794,15019
25371,15019
25504,15152
25724,15244
25963,15244
26184,15153
26194,15142
26194,15868
" /> 
</g>
<g style="fill:#000000; fill-opacity:1.0; 
stroke:#000000; stroke-width:39.3701; stroke-opacity:1; 
stroke-linecap:round; stroke-linejoin:round;">
<polyline style="fill-rule:evenodd;"
points="27275,19375
364,19375
364,13750
444,13870
582,13962
582,13962
744,13994
870,13969
870,13969
1130,13969
1144,14003
1235,14094
1354,14144
1484,14144
2034,14144
2153,14095
2244,14003
2294,13884
2294,13755
2294,13205
2245,13085
2153,12994
2110,12976
2118,12969
2994,12969
3269,12969
3469,12969
3632,12937
3632,12937
3770,12845
4445,12169
5119,12169
5119,12209
5119,12409
5169,12528
5244,12604
5244,13143
4644,13744
4644,13705
4644,13155
4595,13035
4503,12944
4384,12894
4255,12894
3905,12894
3785,12944
3694,13035
3644,13154
3644,13284
3644,13834
3694,13953
3719,13979
3719,14044
3618,14044
3618,13759
3618,13229
3618,13209
3611,13191
3597,13177
3579,13170
3494,13170
3482,13182
3482,13357
3606,13357
3618,13344
3618,13229
3618,13759
3618,13644
3606,13632
3482,13632
3482,13806
3494,13818
3579,13818
3597,13811
3611,13797
3618,13779
3618,13759
3618,14044
3307,14044
3307,13806
3307,13632
3307,13357
3307,13182
3294,13170
3209,13170
3191,13177
3177,13191
3170,13209
3170,13229
3170,13344
3182,13357
3307,13357
3307,13632
3182,13632
3170,13644
3170,13759
3170,13779
3177,13797
3191,13811
3209,13818
3294,13818
3307,13806
3307,14044
3144,14044
2982,14077
2844,14169
2169,14844
2077,14982
2044,15144
2044,15944
2077,16107
2169,16245
2819,16895
2819,16895
2911,16956
2957,16987
2957,16987
3119,17019
3244,17019
3269,17078
3360,17169
3479,17219
3549,17219
3552,17232
3644,17370
5269,18995
5269,18995
5361,19056
5407,19087
5407,19087
5569,19119
8094,19119
18269,19119
18544,19119
18794,19119
23969,19119
24132,19087
24132,19087
24270,18995
26920,16345
26920,16345
26981,16252
27012,16207
27012,16207
27044,16044
27044,16044
27044,10744
27044,9194
27044,5169
27044,4269
27044,4144
27012,3982
27012,3982
26981,3936
26920,3844
26920,3844
26504,3428
26366,3336
26203,3303
22784,3303
22784,3152
22735,3032
22643,2941
22524,2891
22508,2891
22508,2832
22508,1788
22501,1770
22487,1756
22469,1749
22449,1749
22314,1749
22302,1761
22302,2054
22496,2054
22508,2042
22508,1788
22508,2832
22508,2578
22496,2566
22302,2566
22302,2859
22314,2871
22449,2871
22469,2871
22487,2864
22501,2850
22508,2832
22508,2891
22395,2891
21987,2891
21987,2859
21987,2566
21987,2054
21987,1761
21974,1749
21839,1749
21819,1749
21801,1756
21787,1770
21780,1788
21780,2042
21792,2054
21987,2054
21987,2566
21792,2566
21780,2578
21780,2832
21787,2850
21801,2864
21819,2871
21839,2871
21974,2871
21987,2859
21987,2891
21765,2891
21645,2941
21554,3032
21504,3151
21504,3281
21504,3303
21304,3303
19370,1369
19232,1277
19069,1244
17669,1244
17444,1244
15219,1244
15194,1244
15032,1277
15005,1294
14469,1294
14469,1294
14326,1323
14204,1404
14204,1404
12372,3236
12372,3118
12369,3118
12369,2704
12444,2628
12494,2509
12494,2380
12494,1830
12445,1710
12353,1619
12234,1569
12105,1569
11755,1569
11635,1619
11619,1635
11603,1619
11484,1569
11355,1569
11005,1569
10885,1619
10794,1710
10759,1794
8498,1794
8495,1785
8403,1694
8284,1644
8155,1644
7605,1644
7485,1694
7485,1694
6329,1694
6303,1669
6184,1619
6055,1619
5505,1619
5385,1669
5294,1760
5244,1879
5244,2009
5244,2359
5294,2478
5310,2494
5294,2510
5244,2629
5244,2759
5244,3109
5294,3228
5385,3319
5421,3334
5421,3555
5377,3598
5298,3790
5297,3997
5377,4189
5507,4319
2819,4319
2657,4352
2519,4444
1394,5569
1302,5707
1269,5869
1269,7119
819,7119
657,7152
611,7182
519,7244
444,7319
364,7439
364,364
27275,364
27275,19375
" /> 
</g>
<g style="fill:#000000; fill-opacity:0.0; 
stroke:#000000; stroke-width:98.4252; stroke-opacity:1; 
stroke-linecap:round; stroke-linejoin:round;">
<polyline fill="none;"
points="27275,19375
364,19375
364,13750
444,13870
582,13962
582,13962
744,13994
870,13969
870,13969
1130,13969
1144,14003
1235,14094
1354,14144
1484,14144
2034,14144
2153,14095
2244,14003
2294,13884
2294,13755
2294,13205
2245,13085
2153,12994
2110,12976
2118,12969
2994,12969
3269,12969
3469,12969
3632,12937
3632,12937
3770,12845
4445,12169
5119,12169
5119,12209
5119,12409
5169,12528
5244,12604
5244,13143
4644,13744
4644,13705
4644,13155
4595,13035
4503,12944
4384,12894
4255,12894
3905,12894
3785,12944
3694,13035
3644,13154
3644,13284
3644,13834
3694,13953
3719,13979
3719,14044
3618,14044
3618,13759
3618,13229
3618,13209
3611,13191
3597,13177
3579,13170
3494,13170
3482,13182
3482,13357
3606,13357
3618,13344
3618,13229
3618,13759
3618,13644
3606,13632
3482,13632
3482,13806
3494,13818
3579,13818
3597,13811
3611,13797
3618,13779
3618,13759
3618,14044
3307,14044
3307,13806
3307,13632
3307,13357
3307,13182
3294,13170
3209,13170
3191,13177
3177,13191
3170,13209
3170,13229
3170,13344
3182,13357
3307,13357
3307,13632
3182,13632
3170,13644
3170,13759
3170,13779
3177,13797
3191,13811
3209,13818
3294,13818
3307,13806
3307,14044
3144,14044
2982,14077
2844,14169
2169,14844
2077,14982
2044,15144
2044,15944
2077,16107
2169,16245
2819,16895
2819,16895
2911,16956
2957,16987
2957,16987
3119,17019
3244,17019
3269,17078
3360,17169
3479,17219
3549,17219
3552,17232
3644,17370
5269,18995
5269,18995
5361,19056
5407,19087
5407,19087
5569,19119
8094,19119
18269,19119
18544,19119
18794,19119
23969,19119
24132,19087
24132,19087
24270,18995
26920,16345
26920,16345
26981,16252
27012,16207
27012,16207
27044,16044
27044,16044
27044,10744
27044,9194
27044,5169
27044,4269
27044,4144
27012,3982
27012,3982
26981,3936
26920,3844
26920,3844
26504,3428
26366,3336
26203,3303
22784,3303
22784,3152
22735,3032
22643,2941
22524,2891
22508,2891
22508,2832
22508,1788
22501,1770
22487,1756
22469,1749
22449,1749
22314,1749
22302,1761
22302,2054
22496,2054
22508,2042
22508,1788
22508,2832
22508,2578
22496,2566
22302,2566
22302,2859
22314,2871
22449,2871
22469,2871
22487,2864
22501,2850
22508,2832
22508,2891
22395,2891
21987,2891
21987,2859
21987,2566
21987,2054
21987,1761
21974,1749
21839,1749
21819,1749
21801,1756
21787,1770
21780,1788
21780,2042
21792,2054
21987,2054
21987,2566
21792,2566
21780,2578
21780,2832
21787,2850
21801,2864
21819,2871
21839,2871
21974,2871
21987,2859
21987,2891
21765,2891
21645,2941
21554,3032
21504,3151
21504,3281
21504,3303
21304,3303
19370,1369
19232,1277
19069,1244
17669,1244
17444,1244
15219,1244
15194,1244
15032,1277
15005,1294
14469,1294
14469,1294
14326,1323
14204,1404
14204,1404
12372,3236
12372,3118
12369,3118
12369,2704
12444,2628
12494,2509
12494,2380
12494,1830
12445,1710
12353,1619
12234,1569
12105,1569
11755,1569
11635,1619
11619,1635
11603,1619
11484,1569
11355,1569
11005,1569
10885,1619
10794,1710
10759,1794
8498,1794
8495,1785
8403,1694
8284,1644
8155,1644
7605,1644
7485,1694
7485,1694
6329,1694
6303,1669
6184,1619
6055,1619
5505,1619
5385,1669
5294,1760
5244,1879
5244,2009
5244,2359
5294,2478
5310,2494
5294,2510
5244,2629
5244,2759
5244,3109
5294,3228
5385,3319
5421,3334
5421,3555
5377,3598
5298,3790
5297,3997
5377,4189
5507,4319
2819,4319
2657,4352
2519,4444
1394,5569
1302,5707
1269,5869
1269,7119
819,7119
657,7152
611,7182
519,7244
444,7319
364,7439
364,364
27275,364
27275,19375
" /> 
</g>
<g style="fill:#FFFFFF; fill-opacity:0.0; 
stroke:#FFFFFF; stroke-width:39.3701; stroke-opacity:1; 
stroke-linecap:round; stroke-linejoin:round;">
</g>
<g style="fill:#FFFFFF; fill-opacity:1.0; 
stroke:#FFFFFF; stroke-width:39.3701; stroke-opacity:1; 
stroke-linecap:round; stroke-linejoin:round;">
<circle cx="3819.69" cy="5869.69" r="105.315" /> 
<circle cx="3819.69" cy="3894.69" r="105.315" /> 
<circle cx="16294.7" cy="17769.7" r="105.315" /> 
<circle cx="16294.7" cy="15669.7" r="105.315" /> 
<circle cx="19094.7" cy="10469.7" r="105.315" /> 
<circle cx="16294.7" cy="10419.7" r="105.315" /> 
<circle cx="14969.7" cy="4094.69" r="105.315" /> 
<circle cx="14944.7" cy="8219.69" r="105.315" /> 
<circle cx="11769.7" cy="10144.7" r="105.315" /> 
<circle cx="13944.7" cy="10169.7" r="105.315" /> 
<circle cx="15019.7" cy="2344.69" r="105.315" /> 
<circle cx="15019.7" cy="869.685" r="105.315" /> 
<circle cx="16444.7" cy="869.685" r="105.315" /> 
<circle cx="16444.7" cy="2294.69" r="105.315" /> 
<circle cx="18569.7" cy="15719.7" r="105.315" /> 
<circle cx="18569.7" cy="17644.7" r="105.315" /> 
<circle cx="5794.69" cy="5844.69" r="105.315" /> 
<circle cx="5819.69" cy="3894.69" r="105.315" /> 
<circle cx="1694.69" cy="13544.7" r="140.315" /> 
<circle cx="1694.69" cy="12544.7" r="140.315" /> 
<circle cx="1694.69" cy="11544.7" r="140.315" /> 
<circle cx="1694.69" cy="10544.7" r="140.315" /> 
<circle cx="1694.69" cy="9544.69" r="140.315" /> 
<circle cx="1694.69" cy="8544.69" r="140.315" /> 
<circle cx="1694.69" cy="7544.69" r="140.315" /> 
<circle cx="25794.7" cy="7094.69" r="140.315" /> 
<circle cx="25794.7" cy="6094.69" r="140.315" /> 
<circle cx="25794.7" cy="5094.69" r="140.315" /> 
<circle cx="25844.7" cy="15644.7" r="140.315" /> 
<circle cx="25844.7" cy="14644.7" r="140.315" /> 
<circle cx="25844.7" cy="13644.7" r="140.315" /> 
<circle cx="25844.7" cy="12644.7" r="140.315" /> 
<circle cx="25844.7" cy="11644.7" r="140.315" /> 
<circle cx="25844.7" cy="10644.7" r="140.315" /> 
<circle cx="25844.7" cy="9644.69" r="140.315" /> 
</g> 
</svg>
